<?xml version="1.0" encoding="utf-8"?>
<!-- Generator: Adobe Illustrator 25.2.0, SVG Export Plug-In . SVG Version: 6.00 Build 0)  -->
<svg version="1.1" xmlns="http://www.w3.org/2000/svg" xmlns:xlink="http://www.w3.org/1999/xlink" x="0px" y="0px"
	 viewBox="0 0 1920 1080" style="enable-background:new 0 0 1920 1080;" xml:space="preserve">
<style type="text/css">
	.st0{fill:#FFFFFF;}
	.st1{opacity:0.5;fill:#FFFFFF;}
	.st2{opacity:0.1;fill:#FFFFFF;}
	.st3{opacity:0.65;fill:none;stroke:#FFFFFF;stroke-width:0.1;stroke-miterlimit:10;}
	.st4{opacity:0.5;fill:none;stroke:#FFFFFF;stroke-width:0.1;stroke-miterlimit:10;}
	.st5{opacity:0.65;fill:#FFFFFF;}
	.st6{opacity:0.35;fill:#FFFFFF;}
	.st7{opacity:0.15;fill:#FFFFFF;}
</style>
<g id="Capa_2">
	<path class="st0" d="M812.6,376c-1.9,0-1.9,3,0,3C814.6,379,814.6,376,812.6,376z"/>
	<path class="st0" d="M987.6,497c-1.9,0-1.9,3,0,3C989.6,500,989.6,497,987.6,497z"/>
	<path class="st0" d="M1391.6,628.8c-1.9,0-1.9,3,0,3C1393.5,631.8,1393.5,628.8,1391.6,628.8z"/>
	<path class="st0" d="M318,242.1c-1.9,0-1.9,3,0,3C319.9,245.1,319.9,242.1,318,242.1z"/>
	<path class="st0" d="M851.5,568.3c-1.9,0-1.9,3,0,3C853.5,571.3,853.5,568.3,851.5,568.3z"/>
	<path class="st0" d="M1337.6,715.2c-1.9,0-1.9,3,0,3C1339.5,718.2,1339.5,715.2,1337.6,715.2z"/>
	<path class="st0" d="M1702.7,782.1c-1.9,0-1.9,3,0,3C1704.6,785.1,1704.6,782.1,1702.7,782.1z"/>
	<path class="st0" d="M1763.1,965.8c-1.9,0-1.9,3,0,3C1765.1,968.8,1765.1,965.8,1763.1,965.8z"/>
	<path class="st0" d="M492.9,343.6c-1.9,0-1.9,3,0,3C494.9,346.6,494.9,343.6,492.9,343.6z"/>
	<path class="st0" d="M763,497c-1.9,0-1.9,3,0,3C764.9,500,764.9,497,763,497z"/>
	<path class="st0" d="M1149.6,663.3c-1.9,0-1.9,3,0,3C1151.6,666.3,1151.6,663.3,1149.6,663.3z"/>
	<path class="st0" d="M1164.8,522.9c-1.9,0-1.9,3,0,3C1166.7,525.9,1166.7,522.9,1164.8,522.9z"/>
	<path class="st0" d="M639.8,317.7c-1.9,0-1.9,3,0,3C641.8,320.7,641.8,317.7,639.8,317.7z"/>
	<path class="st0" d="M443.2,205.4c-1.9,0-1.9,3,0,3C445.2,208.4,445.2,205.4,443.2,205.4z"/>
	<path class="st0" d="M1573,780c-1.9,0-1.9,3,0,3C1575,783,1575,780,1573,780z"/>
	<path class="st0" d="M654.9,581.2c-1.9,0-1.9,3,0,3C656.9,584.2,656.9,581.2,654.9,581.2z"/>
	<path class="st0" d="M851.5,723.8c-1.9,0-1.9,3,0,3C853.5,726.8,853.5,723.8,851.5,723.8z"/>
	<path class="st0" d="M1253.3,862.1c-1.9,0-1.9,3,0,3C1255.3,865.1,1255.3,862.1,1253.3,862.1z"/>
	<path class="st0" d="M823.4,237.8c-1.9,0-1.9,3,0,3C825.4,240.8,825.4,237.8,823.4,237.8z"/>
	<path class="st0" d="M1274.9,326.3c-1.9,0-1.9,3,0,3C1276.9,329.3,1276.9,326.3,1274.9,326.3z"/>
	<path class="st0" d="M1512.6,544.5c-1.9,0-1.9,3,0,3C1514.5,547.5,1514.5,544.5,1512.6,544.5z"/>
	<path class="st0" d="M1426.1,952.8c-1.9,0-1.9,3,0,3C1428.1,955.8,1428.1,952.8,1426.1,952.8z"/>
	<path class="st0" d="M1017.9,901c-1.9,0-1.9,3,0,3C1019.8,904,1019.8,901,1017.9,901z"/>
	<path class="st0" d="M696,801.6c-1.9,0-1.9,3,0,3C697.9,804.6,697.9,801.6,696,801.6z"/>
	<path class="st0" d="M475.7,605c-1.9,0-1.9,3,0,3C477.6,608,477.6,605,475.7,605z"/>
	<path class="st0" d="M1259.8,127.6c-1.9,0-1.9,3,0,3C1261.7,130.6,1261.7,127.6,1259.8,127.6z"/>
	<path class="st0" d="M1709.1,246.4c-1.9,0-1.9,3,0,3C1711.1,249.4,1711.1,246.4,1709.1,246.4z"/>
	<path class="st0" d="M395.7,805.9c-1.9,0-1.9,3,0,3C397.7,808.9,397.7,805.9,395.7,805.9z"/>
	<path class="st0" d="M760.8,1015.4c-1.9,0-1.9,3,0,3C762.7,1018.4,762.7,1015.4,760.8,1015.4z"/>
	<path class="st0" d="M376.3,991.7c-1.9,0-1.9,3,0,3C378.2,994.7,378.2,991.7,376.3,991.7z"/>
	<path class="st0" d="M998.4,602.8c-1.9,0-1.9,3,0,3C1000.4,605.8,1000.4,602.8,998.4,602.8z"/>
	<path class="st1" d="M1236,618c-1.9,0-1.9,3,0,3C1238,621,1238,618,1236,618z"/>
	<path class="st1" d="M994.1,395.5c-1.9,0-1.9,3,0,3C996,398.5,996,395.5,994.1,395.5z"/>
	<path class="st1" d="M680.9,401.9c-1.9,0-1.9,3,0,3C682.8,404.9,682.8,401.9,680.9,401.9z"/>
	<path class="st1" d="M343.9,453.8c-1.9,0-1.9,3,0,3C345.8,456.8,345.8,453.8,343.9,453.8z"/>
	<path class="st1" d="M566.4,782.1c-1.9,0-1.9,3,0,3C568.3,785.1,568.3,782.1,566.4,782.1z"/>
	<path class="st1" d="M1078.4,764.9c-1.9,0-1.9,3,0,3C1080.3,767.9,1080.3,764.9,1078.4,764.9z"/>
	<path class="st1" d="M1573,877.2c-1.9,0-1.9,3,0,3C1575,880.2,1575,877.2,1573,877.2z"/>
	<path class="st1" d="M1659.4,602.8c-1.9,0-1.9,3,0,3C1661.4,605.8,1661.4,602.8,1659.4,602.8z"/>
	<path class="st1" d="M1195,421.4c-1.9,0-1.9,3,0,3C1196.9,424.4,1196.9,421.4,1195,421.4z"/>
	<path class="st1" d="M611.7,207.5c-1.9,0-1.9,3,0,3C613.7,210.5,613.7,207.5,611.7,207.5z"/>
	<path class="st1" d="M164.6,155.7c-1.9,0-1.9,3,0,3C166.5,158.7,166.5,155.7,164.6,155.7z"/>
	<path class="st2" d="M1411,754.1c-1.9,0-1.9,3,0,3C1413,757.1,1413,754.1,1411,754.1z"/>
	<path class="st2" d="M1091.3,719.5c-1.9,0-1.9,3,0,3C1093.2,722.5,1093.2,719.5,1091.3,719.5z"/>
	<path class="st2" d="M845,648.2c-1.9,0-1.9,3,0,3C847,651.2,847,648.2,845,648.2z"/>
	<path class="st2" d="M570.7,533.7c-1.9,0-1.9,3,0,3C572.6,536.7,572.6,533.7,570.7,533.7z"/>
	<path class="st2" d="M471.3,434.3c-1.9,0-1.9,3,0,3C473.3,437.3,473.3,434.3,471.3,434.3z"/>
	<path class="st2" d="M292,315.5c-1.9,0-1.9,3,0,3C294,318.5,294,315.5,292,315.5z"/>
	<path class="st2" d="M222.9,263.7c-1.9,0-1.9,3,0,3C224.8,266.7,224.8,263.7,222.9,263.7z"/>
	<path class="st2" d="M721.9,309.1c-1.9,0-1.9,3,0,3C723.8,312.1,723.8,309.1,721.9,309.1z"/>
	<path class="st2" d="M935.8,436.5c-1.9,0-1.9,3,0,3C937.7,439.5,937.7,436.5,935.8,436.5z"/>
	<path class="st2" d="M1054.6,315.5c-1.9,0-1.9,3,0,3C1056.5,318.5,1056.5,315.5,1054.6,315.5z"/>
	<path class="st2" d="M1270.6,492.7c-1.9,0-1.9,3,0,3C1272.5,495.7,1272.5,492.7,1270.6,492.7z"/>
	<path class="st2" d="M1434.8,490.5c-1.9,0-1.9,3,0,3C1436.7,493.5,1436.7,490.5,1434.8,490.5z"/>
	<path class="st2" d="M1769.6,546.7c-1.9,0-1.9,3,0,3C1771.6,549.7,1771.6,546.7,1769.6,546.7z"/>
	<path class="st2" d="M1581.7,689.3c-1.9,0-1.9,3,0,3C1583.6,692.3,1583.6,689.3,1581.7,689.3z"/>
	<path class="st2" d="M1804.2,751.9c-1.9,0-1.9,3,0,3C1806.1,754.9,1806.1,751.9,1804.2,751.9z"/>
	<path class="st2" d="M1547.1,358.7c-1.9,0-1.9,3,0,3C1549,361.7,1549.1,358.7,1547.1,358.7z"/>
	<path class="st2" d="M283.4,652.5c-1.9,0-1.9,3,0,3C285.3,655.5,285.3,652.5,283.4,652.5z"/>
	<path class="st2" d="M212.1,458.1c-1.9,0-1.9,3,0,3C214,461.1,214,458.1,212.1,458.1z"/>
	<path class="st2" d="M484.3,529.4c-1.9,0-1.9,3,0,3C486.2,532.4,486.2,529.4,484.3,529.4z"/>
	<path class="st2" d="M659.3,691.4c-1.9,0-1.9,3,0,3C661.2,694.4,661.2,691.4,659.3,691.4z"/>
	<path class="st2" d="M953.1,702.2c-1.9,0-1.9,3,0,3C955,705.2,955,702.2,953.1,702.2z"/>
	<path class="st2" d="M918.5,864.2c-1.9,0-1.9,3,0,3C920.4,867.2,920.4,864.2,918.5,864.2z"/>
	<path class="st2" d="M1134.5,892.3c-1.9,0-1.9,3,0,3C1136.4,895.3,1136.5,892.3,1134.5,892.3z"/>
	<path class="st2" d="M1203.6,801.6c-1.9,0-1.9,3,0,3C1205.6,804.6,1205.6,801.6,1203.6,801.6z"/>
	<path class="st2" d="M1411,926.9c-1.9,0-1.9,3,0,3C1413,929.9,1413,926.9,1411,926.9z"/>
	<path class="st2" d="M1501.8,808.1c-1.9,0-1.9,3,0,3C1503.7,811.1,1503.7,808.1,1501.8,808.1z"/>
	<path class="st2" d="M1445.6,389c-1.9,0-1.9,3,0,3C1447.5,392,1447.5,389,1445.6,389z"/>
	<path class="st2" d="M1110.8,229.1c-1.9,0-1.9,3,0,3C1112.7,232.1,1112.7,229.1,1110.8,229.1z"/>
	<path class="st2" d="M901.2,259.4c-1.9,0-1.9,3,0,3C903.1,262.4,903.1,259.4,901.2,259.4z"/>
	<path class="st2" d="M750,160c-1.9,0-1.9,3,0,3C751.9,163,751.9,160,750,160z"/>
	<path class="st2" d="M1510.4,274.5c-1.9,0-1.9,3,0,3C1512.3,277.5,1512.3,274.5,1510.4,274.5z"/>
	<path class="st2" d="M1700.5,434.3c-1.9,0-1.9,3,0,3C1702.4,437.3,1702.4,434.3,1700.5,434.3z"/>
	<path class="st2" d="M1763.1,557.5c-1.9,0-1.9,3,0,3C1765.1,560.5,1765.1,557.5,1763.1,557.5z"/>
	<path class="st2" d="M1795.5,358.7c-1.9,0-1.9,3,0,3C1797.5,361.7,1797.5,358.7,1795.5,358.7z"/>
	<path class="st2" d="M1557.9,175.1c-1.9,0-1.9,3,0,3C1559.8,178.1,1559.9,175.1,1557.9,175.1z"/>
	<path class="st2" d="M1335.4,194.6c-1.9,0-1.9,3,0,3C1337.3,197.6,1337.4,194.6,1335.4,194.6z"/>
	<path class="st2" d="M1002.7,142.7c-1.9,0-1.9,3,0,3C1004.7,145.7,1004.7,142.7,1002.7,142.7z"/>
	<path class="st2" d="M715.4,136.2c-1.9,0-1.9,3,0,3C717.4,139.2,717.4,136.2,715.4,136.2z"/>
	<path class="st2" d="M756.5,423.5c-1.9,0-1.9,3,0,3C758.4,426.5,758.4,423.5,756.5,423.5z"/>
	<path class="st2" d="M868.8,527.2c-1.9,0-1.9,3,0,3C870.7,530.2,870.7,527.2,868.8,527.2z"/>
	<path class="st2" d="M784.6,535.9c-1.9,0-1.9,3,0,3C786.5,538.9,786.5,535.9,784.6,535.9z"/>
	<path class="st2" d="M646.3,501.3c-1.9,0-1.9,3,0,3C648.2,504.3,648.2,501.3,646.3,501.3z"/>
	<path class="st2" d="M538.3,430c-1.9,0-1.9,3,0,3C540.2,433,540.2,430,538.3,430z"/>
	<path class="st2" d="M423.8,391.1c-1.9,0-1.9,3,0,3C425.7,394.1,425.7,391.1,423.8,391.1z"/>
	<path class="st2" d="M359,566.1c-1.9,0-1.9,3,0,3C360.9,569.1,360.9,566.1,359,566.1z"/>
	<path class="st2" d="M222.9,665.5c-1.9,0-1.9,3,0,3C224.8,668.5,224.8,665.5,222.9,665.5z"/>
	<path class="st2" d="M1346.2,587.7c-1.9,0-1.9,3,0,3C1348.1,590.7,1348.2,587.7,1346.2,587.7z"/>
	<path class="st2" d="M1141,585.6c-1.9,0-1.9,3,0,3C1142.9,588.6,1142.9,585.6,1141,585.6z"/>
	<path class="st2" d="M1188.5,827.5c-1.9,0-1.9,3,0,3C1190.5,830.5,1190.5,827.5,1188.5,827.5z"/>
	<path class="st2" d="M1272.8,695.7c-1.9,0-1.9,3,0,3C1274.7,698.7,1274.7,695.7,1272.8,695.7z"/>
	<path class="st2" d="M1300.9,622.3c-1.9,0-1.9,3,0,3C1302.8,625.3,1302.8,622.3,1300.9,622.3z"/>
	<path class="st2" d="M1082.7,544.5c-1.9,0-1.9,3,0,3C1084.6,547.5,1084.6,544.5,1082.7,544.5z"/>
	<path class="st2" d="M1056.7,486.2c-1.9,0-1.9,3,0,3C1058.7,489.2,1058.7,486.2,1056.7,486.2z"/>
	<path class="st2" d="M937.9,471.1c-1.9,0-1.9,3,0,3C939.9,474.1,939.9,471.1,937.9,471.1z"/>
	<path class="st2" d="M840.7,466.8c-1.9,0-1.9,3,0,3C842.7,469.8,842.7,466.8,840.7,466.8z"/>
	<path class="st2" d="M676.6,445.1c-1.9,0-1.9,3,0,3C678.5,448.1,678.5,445.1,676.6,445.1z"/>
	<path class="st2" d="M590.1,376c-1.9,0-1.9,3,0,3C592.1,379,592.1,376,590.1,376z"/>
	<path class="st2" d="M1106.4,650.4c-1.9,0-1.9,3,0,3C1108.4,653.4,1108.4,650.4,1106.4,650.4z"/>
	<path class="st2" d="M1220.9,702.2c-1.9,0-1.9,3,0,3C1222.9,705.2,1222.9,702.2,1220.9,702.2z"/>
	<path class="st2" d="M1441.3,715.2c-1.9,0-1.9,3,0,3C1443.2,718.2,1443.2,715.2,1441.3,715.2z"/>
	<path class="st2" d="M1346.2,799.4c-1.9,0-1.9,3,0,3C1348.1,802.4,1348.2,799.4,1346.2,799.4z"/>
	<path class="st2" d="M1430.5,851.3c-1.9,0-1.9,3,0,3C1432.4,854.3,1432.4,851.3,1430.5,851.3z"/>
	<path class="st2" d="M1532,626.6c-1.9,0-1.9,3,0,3C1533.9,629.6,1533.9,626.6,1532,626.6z"/>
	<path class="st2" d="M1367.8,471.1c-1.9,0-1.9,3,0,3C1369.8,474.1,1369.8,471.1,1367.8,471.1z"/>
	<path class="st2" d="M1266.3,382.5c-1.9,0-1.9,3,0,3C1268.2,385.5,1268.2,382.5,1266.3,382.5z"/>
	<path class="st2" d="M1190.7,313.4c-1.9,0-1.9,3,0,3C1192.6,316.4,1192.6,313.4,1190.7,313.4z"/>
	<path class="st2" d="M1141,369.5c-1.9,0-1.9,3,0,3C1142.9,372.5,1142.9,369.5,1141,369.5z"/>
	<path class="st2" d="M1000.6,313.4c-1.9,0-1.9,3,0,3C1002.5,316.4,1002.5,313.4,1000.6,313.4z"/>
	<path class="st2" d="M849.4,306.9c-1.9,0-1.9,3,0,3C851.3,309.9,851.3,306.9,849.4,306.9z"/>
	<path class="st2" d="M737,242.1c-1.9,0-1.9,3,0,3C739,245.1,739,242.1,737,242.1z"/>
	<path class="st2" d="M680.9,194.6c-1.9,0-1.9,3,0,3C682.8,197.6,682.8,194.6,680.9,194.6z"/>
	<path class="st2" d="M566.4,157.8c-1.9,0-1.9,3,0,3C568.3,160.8,568.3,157.8,566.4,157.8z"/>
	<path class="st2" d="M1175.6,330.7c-1.9,0-1.9,3,0,3C1177.5,333.7,1177.5,330.7,1175.6,330.7z"/>
	<path class="st2" d="M1391.6,278.8c-1.9,0-1.9,3,0,3C1393.5,281.8,1393.5,278.8,1391.6,278.8z"/>
	<path class="st2" d="M1581.7,382.5c-1.9,0-1.9,3,0,3C1583.6,385.5,1583.6,382.5,1581.7,382.5z"/>
	<path class="st2" d="M1644.3,453.8c-1.9,0-1.9,3,0,3C1646.3,456.8,1646.3,453.8,1644.3,453.8z"/>
	<path class="st2" d="M1795.5,436.5c-1.9,0-1.9,3,0,3C1797.5,439.5,1797.5,436.5,1795.5,436.5z"/>
	<path class="st2" d="M1789.1,540.2c-1.9,0-1.9,3,0,3C1791,543.2,1791,540.2,1789.1,540.2z"/>
	<path class="st2" d="M1698.3,684.9c-1.9,0-1.9,3,0,3C1700.3,687.9,1700.3,684.9,1698.3,684.9z"/>
	<path class="st2" d="M1661.6,818.9c-1.9,0-1.9,3,0,3C1663.5,821.9,1663.5,818.9,1661.6,818.9z"/>
	<path class="st2" d="M1700.5,870.7c-1.9,0-1.9,3,0,3C1702.4,873.7,1702.4,870.7,1700.5,870.7z"/>
	<path class="st2" d="M1687.5,948.5c-1.9,0-1.9,3,0,3C1689.5,951.5,1689.5,948.5,1687.5,948.5z"/>
	<path class="st2" d="M1389.4,898.8c-1.9,0-1.9,3,0,3C1391.4,901.8,1391.4,898.8,1389.4,898.8z"/>
	<path class="st2" d="M1067.5,788.6c-1.9,0-1.9,3,0,3C1069.5,791.6,1069.5,788.6,1067.5,788.6z"/>
	<path class="st2" d="M866.6,715.2c-1.9,0-1.9,3,0,3C868.6,718.2,868.6,715.2,866.6,715.2z"/>
	<path class="st2" d="M750,650.4c-1.9,0-1.9,3,0,3C751.9,653.4,751.9,650.4,750,650.4z"/>
	<path class="st2" d="M544.8,682.8c-1.9,0-1.9,3,0,3C546.7,685.8,546.7,682.8,544.8,682.8z"/>
	<path class="st2" d="M326.6,656.9c-1.9,0-1.9,3,0,3C328.5,659.9,328.5,656.9,326.6,656.9z"/>
	<path class="st2" d="M408.7,710.9c-1.9,0-1.9,3,0,3C410.6,713.9,410.6,710.9,408.7,710.9z"/>
	<path class="st2" d="M568.5,838.3c-1.9,0-1.9,3,0,3C570.5,841.3,570.5,838.3,568.5,838.3z"/>
	<path class="st2" d="M791,866.4c-1.9,0-1.9,3,0,3C793,869.4,793,866.4,791,866.4z"/>
	<path class="st2" d="M1115.1,834c-1.9,0-1.9,3,0,3C1117,837,1117,834,1115.1,834z"/>
	<path class="st2" d="M1581.7,324.2c-1.9,0-1.9,3,0,3C1583.6,327.2,1583.6,324.2,1581.7,324.2z"/>
	<path class="st3" d="M15.5,327.8c790.4,0,1881.5,364.2,1881.5,628"/>
	<path class="st4" d="M3.6,279.4c789.2-42.8,1898.5,261.8,1912.8,525.2"/>
	<path class="st0" d="M1503.9,332.8c-1.9,0-1.9,3,0,3C1505.8,335.8,1505.8,332.8,1503.9,332.8z"/>
	<path class="st5" d="M1398.1,291.8c-1.9,0-1.9,3,0,3C1400,294.8,1400,291.8,1398.1,291.8z"/>
	<path class="st5" d="M1028.7,179.4c-1.9,0-1.9,3,0,3C1030.6,182.4,1030.6,179.4,1028.7,179.4z"/>
	<path class="st5" d="M1212.3,324.2c-1.9,0-1.9,3,0,3C1214.2,327.2,1214.2,324.2,1212.3,324.2z"/>
	<path class="st5" d="M1771.8,490.5c-1.9,0-1.9,3,0,3C1773.7,493.5,1773.7,490.5,1771.8,490.5z"/>
	<path class="st5" d="M1691.9,134.1c-1.9,0-1.9,3,0,3C1693.8,137.1,1693.8,134.1,1691.9,134.1z"/>
	<path class="st6" d="M1713.5,371.7c-1.9,0-1.9,3,0,3C1715.4,374.7,1715.4,371.7,1713.5,371.7z"/>
	<path class="st6" d="M1488.8,149.2c-1.9,0-1.9,3,0,3C1490.7,152.2,1490.7,149.2,1488.8,149.2z"/>
	<path class="st6" d="M1115.1,188.1c-1.9,0-1.9,3,0,3C1117,191.1,1117,188.1,1115.1,188.1z"/>
	<path class="st6" d="M858,147c-1.9,0-1.9,3,0,3C859.9,150,859.9,147,858,147z"/>
	<path class="st6" d="M1048.1,268c-1.9,0-1.9,3,0,3C1050,271,1050,268,1048.1,268z"/>
	<path class="st6" d="M1547.1,233.4c-1.9,0-1.9,3,0,3C1549,236.4,1549.1,233.4,1547.1,233.4z"/>
	<path class="st6" d="M1646.5,477.6c-1.9,0-1.9,3,0,3C1648.4,480.6,1648.4,477.6,1646.5,477.6z"/>
	<path class="st6" d="M935.8,693.6c-1.9,0-1.9,3,0,3C937.7,696.6,937.7,693.6,935.8,693.6z"/>
	<path class="st6" d="M912,948.5c-1.9,0-1.9,3,0,3C913.9,951.5,913.9,948.5,912,948.5z"/>
	<path class="st6" d="M1102.1,555.3c-1.9,0-1.9,3,0,3C1104,558.3,1104,555.3,1102.1,555.3z"/>
	<path class="st6" d="M1326.8,497c-1.9,0-1.9,3,0,3C1328.7,500,1328.7,497,1326.8,497z"/>
	<path class="st6" d="M1151.8,436.5c-1.9,0-1.9,3,0,3C1153.7,439.5,1153.7,436.5,1151.8,436.5z"/>
	<path class="st6" d="M503.7,481.9c-1.9,0-1.9,3,0,3C505.7,484.9,505.7,481.9,503.7,481.9z"/>
	<path class="st7" d="M1616.2,322c-1.9,0-1.9,3,0,3C1618.2,325,1618.2,322,1616.2,322z"/>
	<path class="st7" d="M1678.9,129.8c-1.9,0-1.9,3,0,3C1680.8,132.8,1680.8,129.8,1678.9,129.8z"/>
	<path class="st7" d="M1229.6,211.8c-1.9,0-1.9,3,0,3C1231.5,214.8,1231.5,211.8,1229.6,211.8z"/>
	<path class="st7" d="M430.3,80.1c-1.9,0-1.9,3,0,3C432.2,83.1,432.2,80.1,430.3,80.1z"/>
	<path class="st7" d="M151.6,512.1c-1.9,0-1.9,3,0,3C153.5,515.1,153.6,512.1,151.6,512.1z"/>
	<path class="st7" d="M1149.6,877.2c-1.9,0-1.9,3,0,3C1151.6,880.2,1151.6,877.2,1149.6,877.2z"/>
	<path class="st7" d="M1236,1013.3c-1.9,0-1.9,3,0,3C1238,1016.3,1238,1013.3,1236,1013.3z"/>
	<path class="st7" d="M631.2,918.2c-1.9,0-1.9,3,0,3C633.1,921.2,633.1,918.2,631.2,918.2z"/>
	<path class="st7" d="M540.5,996c-1.9,0-1.9,3,0,3C542.4,999,542.4,996,540.5,996z"/>
	<path class="st7" d="M112.7,792.9c-1.9,0-1.9,3,0,3C114.7,795.9,114.7,792.9,112.7,792.9z"/>
	<path class="st7" d="M184,881.5c-1.9,0-1.9,3,0,3C186,884.5,186,881.5,184,881.5z"/>
	<path class="st7" d="M359,926.9c-1.9,0-1.9,3,0,3C360.9,929.9,360.9,926.9,359,926.9z"/>
	<path class="st7" d="M177.5,1002.5c-1.9,0-1.9,3,0,3C179.5,1005.5,179.5,1002.5,177.5,1002.5z"/>
	<path class="st7" d="M1620.6,1006.8c-1.9,0-1.9,3,0,3C1622.5,1009.8,1622.5,1006.8,1620.6,1006.8z"/>
	<path class="st7" d="M1480.2,1002.5c-1.9,0-1.9,3,0,3C1482.1,1005.5,1482.1,1002.5,1480.2,1002.5z"/>
	<path class="st7" d="M1806.3,684.9c-1.9,0-1.9,3,0,3C1808.3,687.9,1808.3,684.9,1806.3,684.9z"/>
</g>
<g id="Capa_3">
</g>
</svg>
