<?xml version="1.0" encoding="utf-8"?>
<!-- Generator: Adobe Illustrator 25.2.0, SVG Export Plug-In . SVG Version: 6.00 Build 0)  -->
<svg version="1.1" id="Capa_1" xmlns="http://www.w3.org/2000/svg" xmlns:xlink="http://www.w3.org/1999/xlink" x="0px" y="0px"
	 viewBox="0 0 690 690" style="enable-background:new 0 0 690 690;" xml:space="preserve">
<style type="text/css">
	.st0{fill:#141414;}
	.st1{fill:#212121;}
</style>
<g transform="translate(15.456 -108.61)">
	<path class="st0" d="M47,199.2h582.4c21.3,0,38.6,9.5,38.6,21.2l0,0v231.3c0,11.7-17.3,21.2-38.6,21.2l0,0H47
		c-21.3,0-38.6-9.5-38.6-21.2l0,0V220.3C8.4,208.7,25.7,199.2,47,199.2"/>
	<path class="st1" d="M29.5,211.8h617.3c6.1,0,11,2.8,11,6.2v229.4c0,3.4-4.9,6.2-11,6.2H29.5c-6.1,0-11-2.8-11-6.2V218
		C18.5,214.6,23.4,211.8,29.5,211.8L29.5,211.8"/>
</g>
</svg>
