<?xml version="1.0" encoding="utf-8"?>
<!-- Generator: Adobe Illustrator 25.2.0, SVG Export Plug-In . SVG Version: 6.00 Build 0)  -->
<svg version="1.1" xmlns="http://www.w3.org/2000/svg" xmlns:xlink="http://www.w3.org/1999/xlink" x="0px" y="0px"
	 viewBox="0 0 1920 1080" style="enable-background:new 0 0 1920 1080;" xml:space="preserve">
<style type="text/css">
	.st0{fill:#30475E;stroke:#000000;stroke-miterlimit:10;}
	.st1{stroke:#000000;stroke-miterlimit:10;}
	.st2{fill:#FFFFFF;stroke:#000000;stroke-miterlimit:10;}
	.st3{fill:#222831;stroke:#000000;stroke-miterlimit:10;}
	.st4{fill:#F2A365;}
	.st5{fill:none;}
	.st6{fill:#30475E;}
</style>
<g id="Capa_3">
</g>
<g id="Capa_1">
	<polygon class="st0" points="975.5,832.5 979.5,873.5 930.5,1020.5 908.5,1011.32 	"/>
	
		<ellipse transform="matrix(0.5551 -0.8318 0.8318 0.5551 -457.6525 1150.3033)" class="st1" cx="846.4" cy="1002.94" rx="41.46" ry="65.01"/>
	<polyline class="st0" points="930.5,1020.5 988.5,1023.5 1003.5,961.5 979.5,873.5 930.5,1020.5 	"/>
	<polygon class="st0" points="934.5,736.5 955.5,708.5 919.5,718.5 914.5,726.5 	"/>
	<polygon class="st2" points="914.5,728.12 933.5,737.5 934.5,736.5 914.5,726.5 	"/>
	<path class="st0" d="M1003.87,707.16l35.63,37.34l-3,10l-31-1c0.94-2.99,3.78-19.51,3.8-22.86c0-0.24,0-0.48,0-0.72
		c-0.04-5.39-0.79-11.13-2.78-16.75c-0.55-1.57-1.2-3.13-1.96-4.67c-0.33-0.67-0.68-1.34-1.05-2c-3.49-6.22-6.74-8.29-8-9
		c-9.76-5.54-24.92-1.04-39,11l-4,4l14,1l6,1l10,3.66l5,2.34l5.7,3.67l4.06,4.36l2.78,4.2l0.22,0.53l6.24,15.24l2.78-14.51
		l-0.78-14.49"/>
	<polygon class="st0" points="976.72,845.03 1009.59,753.63 1005.5,753.5 975.5,832.5 	"/>
	<polygon class="st0" points="863.5,959.5 893.5,895.5 913.5,906.5 883.58,976.5 878.72,961.5 876.5,959.84 	"/>
	<polyline class="st0" points="805.38,941.75 808.88,941.75 819.68,948.5 860.5,885.5 839.99,886.15 805.38,941.75 	"/>
	<path class="st2" d="M982.5,717.5"/>
	<path class="st2" d="M878.5,825.5"/>
	<polygon class="st0" points="817.5,1046.5 887.5,1063.5 888.5,1053.08 866.5,1056.5 832.94,1047.8 814.5,1037.5 	"/>
	<polygon class="st0" points="934.5,736.5 839.99,886.15 860.5,885.5 893.5,895.5 913.5,906.5 933.32,941.75 1005.12,754.5 
		1007.52,745.94 1000.5,733.5 998,729.32 991.64,722.5 987.5,719.5 980.5,716.5 975.5,714.68 969.5,712.5 965,712.5 955.5,712.5 
		952.5,712.5 	"/>
	<polygon class="st0" points="883.58,976.5 908.5,1011.32 933.32,941.75 913.5,906.5 	"/>
	<path class="st2" d="M836.12,1063.5"/>
	<path class="st3" d="M797.5,1004.5c7.01-15.14,22.06-19.97,29-16c6.92,3.96,10.38,19.3,1,33L797.5,1004.5z"/>
	
		<ellipse transform="matrix(0.4454 -0.8953 0.8953 0.4454 -455.0356 1289.155)" class="st2" cx="813.03" cy="1011.86" rx="10.77" ry="17.26"/>
	<path class="st3" d="M825.44,964.24c7.01-15.14,22.06-19.97,29-16c6.92,3.96,10.38,19.3,1,33L825.44,964.24z"/>
	<path class="st3" d="M826.83,994.63c4.44-11.06,15-15.06,20.1-12.49c5.08,2.57,8.12,13.39,1.93,23.5L826.83,994.63z"/>
	<polygon class="st0" points="863.5,959.5 839.99,952.52 819.68,948.5 860.5,885.5 893.5,895.5 	"/>
	
		<ellipse transform="matrix(0.4454 -0.8953 0.8953 0.4454 -403.4592 1292.8545)" class="st2" cx="841.8" cy="972.08" rx="10.77" ry="17.26"/>
	<path class="st3" d="M868.51,1024.05c6.54-16.27,22.08-22.17,29.58-18.38c7.48,3.78,11.94,19.7,2.84,34.59L868.51,1024.05z"/>
	
		<ellipse transform="matrix(0.4454 -0.8953 0.8953 0.4454 -433.1368 1364.5308)" class="st2" cx="884.81" cy="1031.87" rx="11.02" ry="17.89"/>
	<polygon class="st0" points="883.58,976.5 908.5,1011.32 908.5,1032.5 904.24,1030.51 906.02,1016.6 900.92,1007.72 886.5,983.5 
		873.56,972.08 861.15,964.07 847.5,956.5 847.5,954.75 863.5,959.5 876.5,959.84 904.24,901.41 878.72,961.5 	"/>
	<line class="st2" x1="876.5" y1="959.84" x2="878.72" y2="961.5"/>
	<path class="st0" d="M847.5,956.5c-2-1-27.82-3.37-27.82-3.37l-20.57,6.71l-8.61,10.21l-2.55,8.45h-5.45l22.88-36.75h3.5
		c0.62-2.25,37.6-55.8,37.6-55.8l-41.1,55.8"/>
	<line class="st2" x1="820.71" y1="946.91" x2="847.5" y2="954.75"/>
	<line class="st2" x1="821" y1="947" x2="808.88" y2="941.75"/>
	<polygon class="st0" points="888.5,1053.08 900.5,1045.5 908.5,1032.5 904.24,1030.51 902.47,1037.5 899.37,1041.8 888.5,1049.07 	
		"/>
	<path class="st0" d="M815.36,1037.5c-0.86-2-16.2-17-16.2-17s-9.66-13.4-9.66-14.7s-7-27.3-7-27.3h5.45l2.55,17.7l4.53,11.8
		l4.61,7.4l13.39,14.11l25.54,16.26l18.02,5.75l14.57,1.56l13.65-2.54l3.69-1.47v4.01l-22,3.42l-33.56-8.7L815.36,1037.5z"/>
	<path class="st3" d="M834.77,1017.81c4.44-11.06,15-15.06,20.1-12.49c5.08,2.57,8.12,13.39,1.93,23.5L834.77,1017.81z"/>
	
		<ellipse transform="matrix(0.4454 -0.8953 0.8953 0.4454 -431.8755 1304.5863)" class="st2" cx="837.06" cy="1000.88" rx="7.58" ry="12.3"/>
	<path class="st3" d="M850.77,1000.81c4.44-11.06,15-15.06,20.1-12.49c5.08,2.57,8.12,13.39,1.93,23.5L850.77,1000.81z"/>
	
		<ellipse transform="matrix(0.4454 -0.8953 0.8953 0.4454 -445.6224 1324.8704)" class="st2" cx="846.56" cy="1022.12" rx="7.58" ry="12.3"/>
	
		<ellipse transform="matrix(0.4454 -0.8953 0.8953 0.4454 -425.3226 1329.6404)" class="st2" cx="860.56" cy="1008.12" rx="7.58" ry="12.3"/>
	<path class="st0" d="M1036.5,754.5c0,0,1,1.4,0,1.7s-31.7-0.85-31.7-0.85l0.7-1.85L1036.5,754.5z"/>
	<line class="st2" x1="1039.5" y1="744.5" x2="1036.94" y2="756.25"/>
	<circle class="st4" cx="1253.5" cy="164.5" r="85"/>
	<path class="st4" d="M1252,164"/>
	<path class="st5" d="M1177,127"/>
	<path class="st6" d="M1339,164c0-46.94-38.06-85-85-85c-25.28,0-47.98,11.05-63.55,28.57c45.12-5.23,91.38,12.3,117.55,53.43
		c9,14,4,28,8,43c1.84,10.1-4.76,20.2-12.05,28.76C1325.19,217.3,1339,192.27,1339,164z"/>
</g>
<g id="Capa_2">
	<polygon class="st0" points="782.5,978.5 767.5,976.5 857.5,843.5 876.5,827.5 	"/>
	<polygon class="st0" points="723.5,954.5 763.4,903 857.5,843.5 767.5,976.5 	"/>
	<polygon class="st0" points="782.5,978.5 789.5,1004.5 767.5,982.76 723.5,957.32 723.5,954.5 769.16,973.64 	"/>
	<polygon class="st0" points="908.5,1032.5 930.5,1025.5 989.5,1026.5 988.5,1023.5 930.5,1020.5 908.5,1011.32 	"/>
	<polygon class="st2" points="1003.5,961.5 989.5,1026.5 988.5,1023.5 	"/>
</g>
</svg>
