<?xml version="1.0" encoding="utf-8"?>
<!-- Generator: Adobe Illustrator 25.2.0, SVG Export Plug-In . SVG Version: 6.00 Build 0)  -->
<svg version="1.1" id="Capa_1" xmlns="http://www.w3.org/2000/svg" xmlns:xlink="http://www.w3.org/1999/xlink" x="0px" y="0px"
	 viewBox="0 0 656.6 1042.4" style="enable-background:new 0 0 656.6 1042.4;" xml:space="preserve">
<style type="text/css">
	.st0{fill:#30475E;stroke:#000000;stroke-miterlimit:10;}
	.st1{stroke:#000000;stroke-width:1;stroke-miterlimit:10.0001;}
	.st2{fill:#FFFFFF;stroke:#000000;stroke-miterlimit:10;}
	.st3{fill:#222831;stroke:#000000;stroke-miterlimit:10;}
	.st4{fill:#FFFFFF;stroke:#000000;stroke-width:1;stroke-miterlimit:9.9997;}
	.st5{fill:none;stroke:#000000;stroke-miterlimit:10;}
	.st6{fill:#F2A365;}
	.st7{fill:none;}
	.st8{fill:#30475E;}
</style>
<g id="Capa_3">
</g>
<g id="Capa_1_1_">
	<polygon class="st0" points="278.9,794.9 282.9,835.9 233.9,982.9 211.9,973.7 	"/>
	
		<ellipse transform="matrix(0.5551 -0.8318 0.8318 0.5551 -736.3661 554.107)" class="st1" cx="149.8" cy="965.4" rx="41.5" ry="65"/>
	<polyline class="st0" points="233.9,982.9 291.9,985.9 306.9,923.9 282.9,835.9 233.9,982.9 	"/>
	<polygon class="st0" points="237.9,698.9 258.9,670.9 222.9,680.9 217.9,688.9 	"/>
	<polygon class="st2" points="217.9,690.5 236.9,699.9 237.9,698.9 217.9,688.9 	"/>
	<path class="st0" d="M307.2,669.6l35.6,37.3l-3,10l-31-1c0.9-3,3.8-19.5,3.8-22.9c0-0.2,0-0.5,0-0.7c0-5.4-0.8-11.1-2.8-16.8
		c-0.5-1.6-1.2-3.1-2-4.7c-0.3-0.7-0.7-1.3-1-2c-3.5-6.2-6.7-8.3-8-9c-9.8-5.5-24.9-1-39,11l-4,4l14,1l6,1l10,3.7l5,2.3l5.7,3.7
		l4.1,4.4l2.8,4.2l0.2,0.5l6.2,15.2l2.8-14.5l-0.8-14.5"/>
	<polygon class="st0" points="280.1,807.4 313,716 308.9,715.9 278.9,794.9 	"/>
	<polygon class="st0" points="166.9,921.9 196.9,857.9 216.9,868.9 186.9,938.9 182.1,923.9 179.9,922.2 	"/>
	<polyline class="st0" points="108.7,904.2 112.2,904.2 123,910.9 163.9,847.9 143.3,848.6 108.7,904.2 	"/>
	<path class="st2" d="M285.9,679.9"/>
	<path class="st2" d="M181.9,787.9"/>
	<polygon class="st0" points="120.9,1008.9 190.9,1025.9 191.9,1015.5 169.9,1018.9 136.3,1010.2 117.9,999.9 	"/>
	<polygon class="st0" points="237.9,698.9 143.3,848.6 163.9,847.9 196.9,857.9 216.9,868.9 236.7,904.2 308.5,716.9 310.9,708.3 
		303.9,695.9 301.4,691.7 295,684.9 290.9,681.9 283.9,678.9 278.9,677.1 272.9,674.9 268.4,674.9 258.9,674.9 255.9,674.9 	"/>
	<polygon class="st0" points="186.9,938.9 211.9,973.7 236.7,904.2 216.9,868.9 	"/>
	<path class="st2" d="M139.5,1025.9"/>
	<path class="st3" d="M100.9,966.9c7-15.1,22.1-20,29-16c6.9,4,10.4,19.3,1,33L100.9,966.9z"/>
	
		<ellipse transform="matrix(0.4454 -0.8953 0.8953 0.4454 -807.8087 644.5377)" class="st4" cx="116.4" cy="974.3" rx="10.8" ry="17.3"/>
	<path class="st3" d="M128.8,926.6c7-15.1,22.1-20,29-16c6.9,4,10.4,19.3,1,33L128.8,926.6z"/>
	<path class="st3" d="M130.2,957c4.4-11.1,15-15.1,20.1-12.5c5.1,2.6,8.1,13.4,1.9,23.5L130.2,957z"/>
	<polygon class="st0" points="166.9,921.9 143.3,914.9 123,910.9 163.9,847.9 196.9,857.9 	"/>
	
		<ellipse transform="matrix(0.4454 -0.8953 0.8953 0.4454 -756.2374 648.2417)" class="st4" cx="145.1" cy="934.6" rx="10.8" ry="17.3"/>
	<path class="st3" d="M171.9,986.5c6.5-16.3,22.1-22.2,29.6-18.4c7.5,3.8,11.9,19.7,2.8,34.6L171.9,986.5z"/>
	
		<ellipse transform="matrix(0.4454 -0.8953 0.8953 0.4454 -785.9255 719.913)" class="st4" cx="188.2" cy="994.4" rx="11" ry="17.9"/>
	<polygon class="st0" points="186.9,938.9 211.9,973.7 211.9,994.9 207.6,992.9 209.4,979 204.3,970.1 189.9,945.9 176.9,934.5 
		164.5,926.5 150.9,918.9 150.9,917.2 166.9,921.9 179.9,922.2 207.6,863.8 182.1,923.9 	"/>
	<line class="st5" x1="179.9" y1="922.2" x2="182.1" y2="923.9"/>
	<path class="st0" d="M150.9,918.9c-2-1-27.8-3.4-27.8-3.4l-20.6,6.7l-8.6,10.2l-2.5,8.5h-5.5l22.9-36.8h3.5
		c0.6-2.2,37.6-55.8,37.6-55.8l-41.1,55.8"/>
	<line class="st5" x1="124.1" y1="909.3" x2="150.9" y2="917.2"/>
	<line class="st5" x1="124.4" y1="909.4" x2="112.2" y2="904.2"/>
	<polygon class="st0" points="191.9,1015.5 203.9,1007.9 211.9,994.9 207.6,992.9 205.8,999.9 202.7,1004.2 191.9,1011.5 	"/>
	<path class="st0" d="M118.7,999.9c-0.9-2-16.2-17-16.2-17s-9.7-13.4-9.7-14.7s-7-27.3-7-27.3h5.5l2.5,17.7l4.5,11.8l4.6,7.4
		l13.4,14.1l25.5,16.3l18,5.8l14.6,1.6l13.7-2.5l3.7-1.5v4l-22,3.4l-33.6-8.7L118.7,999.9z"/>
	<path class="st3" d="M138.1,980.2c4.4-11.1,15-15.1,20.1-12.5c5.1,2.6,8.1,13.4,1.9,23.5L138.1,980.2z"/>
	
		<ellipse transform="matrix(0.4454 -0.8953 0.8953 0.4454 -784.6559 659.9691)" class="st4" cx="140.4" cy="963.4" rx="7.6" ry="12.3"/>
	<path class="st3" d="M154.1,963.2c4.4-11.1,15-15.1,20.1-12.5c5.1,2.6,8.1,13.4,1.9,23.5L154.1,963.2z"/>
	
		<ellipse transform="matrix(0.4454 -0.8953 0.8953 0.4454 -798.4028 680.2541)" class="st4" cx="149.9" cy="984.6" rx="7.6" ry="12.3"/>
	
		<ellipse transform="matrix(0.4454 -0.8953 0.8953 0.4454 -778.1036 685.0256)" class="st4" cx="163.9" cy="970.6" rx="7.6" ry="12.3"/>
	<path class="st0" d="M339.9,716.9c0,0,1,1.4,0,1.7s-31.7-0.8-31.7-0.8l0.7-1.8L339.9,716.9z"/>
	<line class="st5" x1="342.9" y1="706.9" x2="340.3" y2="718.7"/>
	<circle class="st6" cx="556.9" cy="126.9" r="85"/>
	<path class="st6" d="M555.4,126.4"/>
	<path class="st7" d="M480.4,89.4"/>
	<path class="st8" d="M642.4,126.4c0-46.9-38.1-85-85-85c-25.3,0-48,11.1-63.6,28.6c45.1-5.2,91.4,12.3,117.6,53.4c9,14,4,28,8,43
		c1.8,10.1-4.8,20.2-12.1,28.8C628.5,179.7,642.4,154.7,642.4,126.4z"/>
</g>
<g id="Capa_2_1_">
	<polygon class="st0" points="85.9,940.9 70.9,938.9 160.9,805.9 179.9,789.9 	"/>
	<polygon class="st0" points="26.9,916.9 66.8,865.4 160.9,805.9 70.9,938.9 	"/>
	<polygon class="st0" points="85.9,940.9 92.9,966.9 70.9,945.2 26.9,919.7 26.9,916.9 72.5,936 	"/>
	<polygon class="st0" points="211.9,994.9 233.9,987.9 292.9,988.9 291.9,985.9 233.9,982.9 211.9,973.7 	"/>
	<polygon class="st2" points="306.9,923.9 292.9,988.9 291.9,985.9 	"/>
</g>
</svg>
