<?xml version="1.0" encoding="utf-8"?>
<!-- Generator: Adobe Illustrator 25.2.1, SVG Export Plug-In . SVG Version: 6.00 Build 0)  -->
<svg version="1.1" id="Capa_1" xmlns="http://www.w3.org/2000/svg" xmlns:xlink="http://www.w3.org/1999/xlink" x="0px" y="0px"
	 viewBox="0 0 512 512" style="enable-background:new 0 0 512 512;" xml:space="preserve">
<style type="text/css">
	.st0{fill:#414141;}
</style>
<g>
	<g>
		<path class="st0" d="M508.4,245.9l-144-176c-3-3.7-7.6-5.9-12.4-5.9H224c-6.2,0-11.8,3.6-14.5,9.2c-2.6,5.6-1.9,12.2,2.1,17
			L347.3,256L211.6,421.9c-3.9,4.8-4.7,11.4-2.1,17c2.6,5.6,8.3,9.1,14.4,9.1h128c4.8,0,9.3-2.1,12.4-5.9l144-176
			C513.2,260.2,513.2,251.7,508.4,245.9z M344.4,416h-86.7l122.6-149.9c4.8-5.9,4.8-14.4,0-20.3L257.8,96h86.7l130.9,160L344.4,416z
			"/>
	</g>
</g>
<g>
	<g>
		<path class="st0" d="M300.4,245.9l-144-176c-3-3.7-7.6-5.9-12.4-5.9H16c-6.2,0-11.8,3.6-14.5,9.2c-2.6,5.6-1.9,12.2,2.1,17
			L139.3,256L3.6,421.9c-4,4.8-4.7,11.4-2.1,17c2.7,5.6,8.3,9.2,14.5,9.2h128c4.8,0,9.3-2.1,12.4-5.9l144-176
			C305.2,260.2,305.2,251.7,300.4,245.9z M136.4,416H49.8l122.6-149.9c4.8-5.9,4.8-14.4,0-20.3L49.8,96h86.7l130.9,160L136.4,416z"
			/>
	</g>
</g>
</svg>
