<?xml version="1.0" encoding="utf-8"?>
<!-- Generator: Adobe Illustrator 25.2.1, SVG Export Plug-In . SVG Version: 6.00 Build 0)  -->
<svg version="1.1" id="Capa_1" xmlns="http://www.w3.org/2000/svg" xmlns:xlink="http://www.w3.org/1999/xlink" x="0px" y="0px"
	 viewBox="0 0 384 538" style="enable-background:new 0 0 384 538;" xml:space="preserve">
<style type="text/css">
	.st0{fill:#14FFEC;}
</style>
<g>
	<g>
		<path class="st0" d="M202.1,534.4l176-144c3.7-3,5.9-7.6,5.9-12.4l0-128c0-6.2-3.6-11.8-9.2-14.5c-5.6-2.6-12.2-1.9-17,2.1
			L192,373.3L26.1,237.6c-4.8-3.9-11.4-4.7-17-2.1C3.6,238.2,0,243.8,0,250l0,128c0,4.8,2.1,9.3,5.9,12.4l176,144
			C187.8,539.2,196.3,539.2,202.1,534.4z M32,370.4l0-86.7l149.9,122.6c5.9,4.8,14.4,4.8,20.3,0L352,283.8l0,86.7L192,501.3
			L32,370.4z"/>
	</g>
</g>
<g>
	<g>
		<path class="st0" d="M202.1,300.4l176-144c3.7-3,5.9-7.6,5.9-12.4l0-128c0-6.2-3.6-11.8-9.2-14.5c-5.6-2.6-12.2-1.9-17,2.1
			L192,139.3L26.1,3.6c-4.8-4-11.4-4.7-17-2.1C3.6,4.2,0,9.8,0,16l0,128c0,4.8,2.1,9.3,5.9,12.4l176,144
			C187.8,305.2,196.3,305.2,202.1,300.4z M32,136.4l0-86.7l149.9,122.6c5.9,4.8,14.4,4.8,20.3,0L352,49.8l0,86.7L192,267.3L32,136.4
			z"/>
	</g>
</g>
</svg>
