<?xml version="1.0" encoding="utf-8"?>
<!-- Generator: Adobe Illustrator 25.2.0, SVG Export Plug-In . SVG Version: 6.00 Build 0)  -->
<svg version="1.1" id="Capa_1" xmlns="http://www.w3.org/2000/svg" xmlns:xlink="http://www.w3.org/1999/xlink" x="0px" y="0px"
	 viewBox="0 0 365 480" style="enable-background:new 0 0 365 480;" xml:space="preserve">
<style type="text/css">
	.st0{fill:#323232;}
</style>
<g>
	<g>
		<path class="st0" d="M194.2,475.9l159.7-144.3c3.4-3.1,5.3-7.4,5.3-11.9l-0.2-96c0-6.3-3.7-12-9.5-14.6
			c-5.8-2.5-12.5-1.5-17.2,2.8L183.3,346.5L33.7,212.4c-4.7-4.2-11.5-5.3-17.2-2.7C10.7,212.3,7,218,7,224.3l0.2,96
			c0,4.5,2,8.8,5.3,11.9l160.3,143.7C178.9,481.4,188.1,481.4,194.2,475.9z"/>
	</g>
</g>
<g>
	<g>
		<path class="st0" d="M195,269.1l159.2-144.9c3.4-3.1,5.3-7.4,5.2-11.9l-0.6-96c0-6.3-3.8-12-9.6-14.6c-5.8-2.5-12.6-1.4-17.2,2.8
			L183.6,139.7L33.5,6.2C28.8,2,22,1,16.3,3.6C10.5,6.2,6.8,12,6.9,18.3l0.6,96c0,4.5,2,8.8,5.3,11.9l160.8,143.1
			C179.7,274.6,189,274.6,195,269.1z"/>
	</g>
</g>
</svg>
