<?xml version="1.0" encoding="utf-8"?>
<!-- Generator: Adobe Illustrator 25.2.0, SVG Export Plug-In . SVG Version: 6.00 Build 0)  -->
<svg version="1.1" id="Capa_1" xmlns="http://www.w3.org/2000/svg" xmlns:xlink="http://www.w3.org/1999/xlink" x="0px" y="0px"
	 viewBox="0 0 480 480.8" style="enable-background:new 0 0 480 480.8;" xml:space="preserve">
<style type="text/css">
	.st0{fill:#14FFEC;}
	.st1{fill:#E5E5E5;}
	.st2{fill:#210B20;}
</style>
<path class="st0" d="M317.1,314.4c-22.4,22.4-19.6,67.6-19.6,67.6H183.9c0,0,2.4-45.2-19.6-67.6c-24.4-21.6-40-52.8-40-87.6
	c0-64,52-116,116-116s116,52,116,116C356.3,261.6,341.1,292.8,317.1,314.4L317.1,314.4z"/>
<g>
	<path class="st1" d="M300.7,417.6c0,6-4.8,10.8-10.8,10.8h-98.8c-6,0-10.8-4.8-10.8-10.8l0,0c0-6,4.8-10.8,10.8-10.8h98.4
		C295.5,406.8,300.7,411.6,300.7,417.6L300.7,417.6z"/>
	<path class="st1" d="M285.9,462.4c0,6-4.8,10.8-10.8,10.8h-69.2c-6,0-10.8-4.8-10.8-10.8l0,0c0-6,4.8-10.8,10.8-10.8h69.2
		C281.1,451.6,285.9,456.4,285.9,462.4L285.9,462.4z"/>
</g>
<g>
	<path class="st2" d="M323.1,318.4c26-23.6,40.8-56.8,40.8-91.6c0-68-55.6-123.6-123.6-123.6s-123.6,55.6-123.6,123.6
		c0,35.6,15.6,69.6,42,92.8c19.6,19.6,17.6,61.2,17.6,61.6c0,2,0.8,4,2,5.6c1.6,1.6,3.6,2.4,5.6,2.4h113.2c2,0,4-0.8,5.6-2.4
		s2-3.6,2-5.6c0-0.4-2-42,17.6-61.6C322.7,319.2,323.1,318.8,323.1,318.4z M311.9,308.4c-0.8,0.4-1.2,1.2-1.6,2
		c-17.6,18.8-20.4,49.6-20.8,64h-98c-0.4-14.8-3.6-46.8-22.4-65.6c-23.6-20.8-37.2-50.4-37.2-81.6c0-60,48.8-108.4,108.4-108.4
		c60,0,108.4,48.8,108.4,108.4C348.7,258,335.5,288,311.9,308.4z"/>
	<path class="st2" d="M240.3,135.2c-4,0-7.6,3.2-7.6,7.6c0,4,3.2,7.6,7.6,7.6c44.8,0,81.2,36.4,81.2,81.2c0,4,3.2,7.6,7.6,7.6
		c4,0,7.6-3.2,7.6-7.6C336.7,178.4,293.5,135.2,240.3,135.2z"/>
	<path class="st2" d="M308.3,417.6c0-10.4-8.4-18.4-18.4-18.4h-98.8c-10.4,0-18.4,8.4-18.4,18.4c0,10.4,8.4,18.4,18.4,18.4h98.4
		C299.9,436,308.3,428,308.3,417.6z M289.5,420.8h-98.4c-2,0-3.2-1.6-3.2-3.2c0-2,1.6-3.2,3.2-3.2h98.4c2,0,3.2,1.6,3.2,3.2
		C293.1,419.6,291.5,420.8,289.5,420.8z"/>
	<path class="st2" d="M275.1,444h-69.2c-10.4,0-18.4,8.4-18.4,18.4c0,10.4,8.4,18.4,18.4,18.4h69.2c10.4,0,18.4-8.4,18.4-18.4
		S285.1,444,275.1,444z M275.1,465.6h-69.2c-2,0-3.2-1.6-3.2-3.2c0-2,1.6-3.2,3.2-3.2h69.2c2,0,3.2,1.6,3.2,3.2
		C278.3,464.4,277.1,465.6,275.1,465.6z"/>
	<path class="st2" d="M247.9,58.8V7.6c0-4-3.2-7.6-7.6-7.6c-4,0-7.6,3.2-7.6,7.6v51.6c0,4,3.2,7.6,7.6,7.6
		C244.7,66.4,247.9,63.2,247.9,58.8z"/>
	<path class="st2" d="M366.3,38c-3.6-2.4-8-1.2-10.4,2l-28.4,42.8c-2.4,3.6-1.2,8,2,10.4c1.2,0.8,2.8,1.2,4,1.2
		c2.4,0,4.8-1.2,6.4-3.2l28.4-42.8C370.7,45.2,369.5,40.4,366.3,38z"/>
	<path class="st2" d="M149.9,92.8c1.2,0,2.8-0.4,4-1.2c3.6-2.4,4.4-6.8,2.4-10.4L128.7,38c-2.4-3.6-6.8-4.4-10.4-2.4
		c-3.6,2.4-4.4,6.8-2.4,10.4l27.6,43.2C145.1,91.6,147.5,92.8,149.9,92.8z"/>
	<path class="st2" d="M43.9,128.8l45.2,24.4c1.2,0.8,2.4,0.8,3.6,0.8c2.8,0,5.2-1.6,6.8-4c2-3.6,0.8-8.4-3.2-10.4l-45.2-24.4
		c-3.6-2-8.4-0.8-10.4,3.2C39.1,122.4,40.3,126.8,43.9,128.8z"/>
	<path class="st2" d="M387.9,154.4c1.2,0,2.4-0.4,3.6-0.8l45.2-24.4c3.6-2,5.2-6.4,3.2-10.4c-2-3.6-6.4-5.2-10.4-3.2L384.3,140
		c-3.6,2-5.2,6.4-3.2,10.4C382.3,152.8,385.1,154.4,387.9,154.4z"/>
</g>
</svg>
