<?xml version="1.0" encoding="utf-8"?>
<!-- Generator: Adobe Illustrator 25.2.1, SVG Export Plug-In . SVG Version: 6.00 Build 0)  -->
<svg version="1.1" id="Capa_1" xmlns="http://www.w3.org/2000/svg" xmlns:xlink="http://www.w3.org/1999/xlink" x="0px" y="0px"
	 viewBox="0 0 201.4 201.4" style="enable-background:new 0 0 201.4 201.4;" xml:space="preserve">
<style type="text/css">
	.st0{fill:#14FFEC;}
	.st1{fill:#FFFFFF;}
</style>
<circle class="st0" cx="100.7" cy="100.7" r="97.3"/>
<path d="M100.7,201.4C45.2,201.4,0,156.2,0,100.7S45.2,0,100.7,0s100.7,45.2,100.7,100.7S156.2,201.4,100.7,201.4z M100.7,6.8
	c-51.8,0-93.9,42.1-93.9,93.9s42.1,93.9,93.9,93.9s93.9-42.1,93.9-93.9S152.5,6.8,100.7,6.8z"/>
<path class="st1" d="M110.3,100.7l41.3-41.3c2.7-2.7,2.7-7,0-9.7c-2.7-2.7-7-2.7-9.7,0L100.7,91L59.4,49.8c-2.7-2.7-7-2.7-9.7,0
	c-2.7,2.7-2.7,7,0,9.7L91,100.7l-41.3,41.3c-2.7,2.7-2.7,7,0,9.7c1.3,1.3,3.1,2,4.8,2s3.5-0.7,4.8-2l41.3-41.3l41.3,41.3
	c2.7,2.7,7,2.7,9.7,0c1.3-1.3,2-3.1,2-4.8c0-1.7-0.7-3.5-2-4.8L110.3,100.7z"/>
<path d="M146.8,157c-2.7,0-5.3-1.1-7.2-3l-38.8-38.8L61.9,154c-1.9,1.9-4.5,3-7.2,3s-5.3-1.1-7.2-3c-1.9-1.9-3-4.5-3-7.2
	s1.1-5.3,3-7.2l38.8-38.8L47.4,61.9c-4-4-4-10.5,0-14.5c1.9-1.9,4.5-3,7.2-3s5.3,1.1,7.2,3l38.8,38.8l38.8-38.8c4-4,10.5-4,14.5,0
	c1.9,1.9,3,4.5,3,7.2s-1.1,5.3-3,7.2l-38.8,38.8l38.8,38.8c1.9,1.9,3,4.5,3,7.2c0,2.7-1.1,5.3-3,7.2
	C152.1,155.9,149.5,157,146.8,157z M100.7,105.5l43.7,43.7c1.3,1.3,3.5,1.3,4.8,0c0.6-0.6,1-1.5,1-2.4s-0.4-1.8-1-2.4l-43.7-43.7
	L149.2,57c0.6-0.6,1-1.5,1-2.4s-0.4-1.8-1-2.4c-1.3-1.3-3.5-1.3-4.8,0l-43.7,43.7L57,52.2c-1.3-1.3-3.5-1.3-4.8,0
	c-1.3,1.3-1.3,3.5,0,4.8l43.7,43.7l-43.7,43.7c-0.6,0.6-1,1.5-1,2.4s0.4,1.8,1,2.4c1.3,1.3,3.5,1.3,4.8,0L100.7,105.5z"/>
</svg>
