<?xml version="1.0" encoding="utf-8"?>
<!-- Generator: Adobe Illustrator 25.2.1, SVG Export Plug-In . SVG Version: 6.00 Build 0)  -->
<svg version="1.1" id="Capa_1" xmlns="http://www.w3.org/2000/svg" xmlns:xlink="http://www.w3.org/1999/xlink" x="0px" y="0px"
	 viewBox="0 0 201.4 201.4" style="enable-background:new 0 0 201.4 201.4;" xml:space="preserve">
<style type="text/css">
	.st0{fill:#14FFEC;}
	.st1{fill:#FFFFFF;}
</style>
<circle class="st0" cx="100.7" cy="100.7" r="97.3"/>
<path d="M100.7,201.4C45.2,201.4,0,156.2,0,100.7S45.2,0,100.7,0s100.7,45.2,100.7,100.7S156.2,201.4,100.7,201.4z M100.7,6.8
	c-51.8,0-93.9,42.1-93.9,93.9s42.1,93.9,93.9,93.9s93.9-42.1,93.9-93.9S152.5,6.8,100.7,6.8z"/>
<path class="st1" d="M150.2,157h-99c-3.8,0-6.8-3.1-6.8-6.8v-99c0-3.8,3.1-6.8,6.8-6.8h99c3.8,0,6.8,3.1,6.8,6.8v99
	C157,154,154,157,150.2,157z M58,143.4h85.3V58H58V143.4z"/>
<path d="M150.2,160.4h-99c-5.6,0-10.2-4.6-10.2-10.2v-99C41,45.6,45.6,41,51.2,41h99c5.6,0,10.2,4.6,10.2,10.2v99
	C160.4,155.8,155.8,160.4,150.2,160.4z M51.2,47.8c-1.9,0-3.4,1.5-3.4,3.4v99c0,1.9,1.5,3.4,3.4,3.4h99c1.9,0,3.4-1.5,3.4-3.4v-99
	c0-1.9-1.5-3.4-3.4-3.4C150.2,47.8,51.2,47.8,51.2,47.8z M146.8,146.8H54.6V54.6h92.2V146.8z M61.4,139.9h78.5V61.4H61.4V139.9z"/>
</svg>
