<?xml version="1.0" encoding="utf-8"?>
<!-- Generator: Adobe Illustrator 25.2.1, SVG Export Plug-In . SVG Version: 6.00 Build 0)  -->
<svg version="1.1" id="Capa_1" xmlns="http://www.w3.org/2000/svg" xmlns:xlink="http://www.w3.org/1999/xlink" x="0px" y="0px"
	 viewBox="0 0 201.4 201.4" style="enable-background:new 0 0 201.4 201.4;" xml:space="preserve">
<style type="text/css">
	.st0{fill:#14FFEC;}
	.st1{fill:#FFFFFF;}
</style>
<circle class="st0" cx="100.7" cy="100.7" r="97.3"/>
<path d="M100.7,201.4C45.2,201.4,0,156.2,0,100.7S45.2,0,100.7,0s100.7,45.2,100.7,100.7S156.2,201.4,100.7,201.4z M100.7,6.8
	c-51.8,0-93.9,42.1-93.9,93.9s42.1,93.9,93.9,93.9s93.9-42.1,93.9-93.9S152.5,6.8,100.7,6.8z"/>
<path class="st1" d="M100.7,170.7c-38.6,0-70-31.4-70-70s31.4-70,70-70s70,31.4,70,70S139.3,170.7,100.7,170.7z M100.7,44.4
	c-31.1,0-56.3,25.3-56.3,56.3S69.6,157,100.7,157s56.3-25.3,56.3-56.3S131.7,44.4,100.7,44.4z"/>
<path d="M100.7,174.1c-40.5,0-73.4-32.9-73.4-73.4s32.9-73.4,73.4-73.4s73.4,32.9,73.4,73.4S141.2,174.1,100.7,174.1z M100.7,34.1
	C64,34.1,34.1,64,34.1,100.7s29.9,66.6,66.6,66.6s66.6-29.9,66.6-66.6S137.4,34.1,100.7,34.1z M100.7,160.4
	c-32.9,0-59.7-26.8-59.7-59.7S67.8,41,100.7,41s59.7,26.8,59.7,59.7S133.6,160.4,100.7,160.4z M100.7,47.8
	c-29.2,0-52.9,23.7-52.9,52.9s23.7,52.9,52.9,52.9s52.9-23.7,52.9-52.9S129.9,47.8,100.7,47.8z"/>
</svg>
