<?xml version="1.0" encoding="utf-8"?>
<!-- Generator: Adobe Illustrator 25.2.1, SVG Export Plug-In . SVG Version: 6.00 Build 0)  -->
<svg version="1.1" id="Capa_1" xmlns="http://www.w3.org/2000/svg" xmlns:xlink="http://www.w3.org/1999/xlink" x="0px" y="0px"
	 viewBox="0 0 201.4 201.4" style="enable-background:new 0 0 201.4 201.4;" xml:space="preserve">
<style type="text/css">
	.st0{fill:#14FFEC;}
	.st1{fill:#FFFFFF;}
</style>
<circle class="st0" cx="100.7" cy="100.7" r="97.3"/>
<path d="M100.7,201.4C45.2,201.4,0,156.2,0,100.7S45.2,0,100.7,0s100.7,45.2,100.7,100.7S156.2,201.4,100.7,201.4z M100.7,6.8
	c-51.8,0-93.9,42.1-93.9,93.9s42.1,93.9,93.9,93.9s93.9-42.1,93.9-93.9S152.5,6.8,100.7,6.8z"/>
<path class="st1" d="M154.9,146.8H46.5c-2.4,0-4.7-1.3-5.9-3.4c-1.2-2.1-1.2-4.7,0-6.8l54.2-95c1.2-2.1,3.5-3.4,5.9-3.4
	s4.7,1.3,5.9,3.4l54.2,95c1.2,2.1,1.2,4.7,0,6.8C159.6,145.5,157.3,146.8,154.9,146.8z M58.3,133.1h84.9l-42.4-74.4L58.3,133.1z"/>
<path d="M154.9,150.2H46.5c-3.6,0-7-2-8.9-5.1c-1.8-3.1-1.8-7.1,0-10.2l54.2-95c1.8-3.2,5.2-5.2,8.9-5.2s7.1,2,8.9,5.2l54.2,95
	c1.8,3.2,1.8,7.1,0,10.2C161.9,148.2,158.5,150.2,154.9,150.2z M100.7,41.5c-1.2,0-2.4,0.7-3,1.7l-54.2,95c-0.6,1.1-0.6,2.4,0,3.4
	c0.6,1,1.7,1.7,3,1.7h108.4c1.2,0,2.3-0.7,3-1.7c0.6-1,0.6-2.4,0-3.4l-54.2-95C103.1,42.2,101.9,41.5,100.7,41.5z M149,136.5H52.4
	l48.3-84.7L149,136.5z M64.1,129.7h73.1l-36.6-64.1L64.1,129.7z"/>
</svg>
