<?xml version="1.0" encoding="utf-8"?>
<!-- Generator: Adobe Illustrator 25.2.1, SVG Export Plug-In . SVG Version: 6.00 Build 0)  -->
<svg version="1.1" id="Capa_1" xmlns="http://www.w3.org/2000/svg" xmlns:xlink="http://www.w3.org/1999/xlink" x="0px" y="0px"
	 viewBox="0 0 373.2 373.2" style="enable-background:new 0 0 373.2 373.2;" xml:space="preserve">
<style type="text/css">
	.st0{fill:#14FFEC;}
	.st1{fill:#1D1D1B;}
</style>
<path class="st0" d="M186.9,10.1c95.7,0.1,173.2,77.8,173,173.5c-0.1,95.7-77.8,173.2-173.5,173c-20.5,0-40.9-3.7-60.1-11
	L25.8,363.3l29.1-67.7c-26.8-31.2-41.5-70.9-41.5-112C13.4,87.8,91.1,10.1,186.9,10.1z"/>
<g>
	<path class="st1" d="M186.9,0.1C85.7,0.1,3.4,82.4,3.4,183.6c0,41.3,14.1,81.4,39.9,113.7l-26.7,62c-2.2,5.1,0.2,11,5.2,13.1
		c1.8,0.8,3.8,1,5.7,0.7l97.9-17.2c19.6,7.1,40.2,10.7,61,10.6c101.2,0,183.5-82.3,183.5-183.5C370.1,82.1,288.4,0.1,187.5,0
		C187.4,0.1,187.2,0.1,186.9,0.1z M186.5,346.6c-19.3,0-38.4-3.5-56.5-10.3c-1.7-0.7-3.5-0.8-5.3-0.5l-82.4,14.4l21.8-50.7
		c1.5-3.5,0.9-7.6-1.6-10.5c-11.8-13.7-21.2-29.3-27.8-46.2c-7.4-18.9-11.2-39-11.2-59.3C23.5,93.3,96.9,20,187,20
		c89.9-0.2,162.9,72.5,163,162.4c0,0.2,0,0.4,0,0.6C350,273.3,276.6,346.6,186.5,346.6z"/>
	<path class="st1" d="M124.7,166.7h54c5.5,0,10-4.5,10-10s-4.5-10-10-10h-54c-5.5,0-10,4.5-10,10S119.2,166.7,124.7,166.7z"/>
	<path class="st1" d="M248.7,196.7h-124c-5.5,0-10,4.5-10,10s4.5,10,10,10h124c5.5,0,10-4.5,10-10S254.2,196.7,248.7,196.7z"/>
</g>
</svg>
