<?xml version="1.0" encoding="utf-8"?>
<!-- Generator: Adobe Illustrator 25.2.0, SVG Export Plug-In . SVG Version: 6.00 Build 0)  -->
<svg version="1.1" id="Capa_1" xmlns="http://www.w3.org/2000/svg" xmlns:xlink="http://www.w3.org/1999/xlink" x="0px" y="0px"
	 viewBox="0 0 32 32" style="enable-background:new 0 0 32 32;" xml:space="preserve">
<style type="text/css">
	.st0{fill:#30475E;}
</style>
<path class="st0" d="M16,0C7.2,0,0,7.2,0,16s7.2,16,16,16s16-7.2,16-16S24.8,0,16,0z M3,16C3,8.8,8.8,3,16,3c3.4,0,6.5,1.3,8.9,3.5
	L12,12L6.5,24.9C4.3,22.5,3,19.4,3,16z M18.3,18.3l-8,3.4l3.4-8L18.3,18.3z M16,29c-3.4,0-6.5-1.3-8.9-3.5L20,20l5.5-12.9
	C27.7,9.5,29,12.6,29,16C29,23.2,23.2,29,16,29z"/>
</svg>
