<?xml version="1.0" encoding="utf-8"?>
<!-- Generator: Adobe Illustrator 25.2.1, SVG Export Plug-In . SVG Version: 6.00 Build 0)  -->
<svg version="1.1" id="Capa_1" xmlns="http://www.w3.org/2000/svg" xmlns:xlink="http://www.w3.org/1999/xlink" x="0px" y="0px"
	 viewBox="0 0 512 512" style="enable-background:new 0 0 512 512;" xml:space="preserve">
<style type="text/css">
	.st0{fill:#14FFEC;}
	.st1{fill:#0D7377;}
	.st2{fill:#EEEEEE;}
	.st3{fill:#FFFFFF;}
</style>
<g>
	<g>
		<path class="st0" d="M440.4,151.8H71.6c-13.3,0-24,10.8-24,24v296.6h416.8V175.8C464.4,162.6,453.7,151.8,440.4,151.8L440.4,151.8
			z"/>
		<path class="st0" d="M424.3,432.4H87.7c-8.9,0-16-7.2-16-16V191.9c0-8.9,7.2-16,16-16h336.7c8.9,0,16,7.2,16,16v224.5
			C440.4,425.2,433.2,432.4,424.3,432.4z"/>
		<path class="st1" d="M207.9,191.9l-42.3,49.4c-3.7,4.4-5.8,9.9-5.8,15.6V280L232,240L207.9,191.9z"/>
		<path class="st1" d="M199.2,258.1L232,240l-24-48.1l-23.8,27.7C187.9,232.9,193,245.8,199.2,258.1L199.2,258.1z"/>
		<path class="st1" d="M304.1,191.9l42.3,49.4c3.7,4.4,5.8,9.9,5.8,15.6V280L280,240L304.1,191.9z"/>
		<path class="st1" d="M7.5,456.4v16c0,8.9,7.2,16,16,16h464.9c8.9,0,16-7.2,16-16v-16H7.5z"/>
		<path class="st2" d="M261.8,29.5c-3.1-3.3-8.5-3.3-11.6,0c-31.1,33.5-50.3,79.4-50.3,130.3c0,38.7,11.2,74.5,30.2,104.2h51.8
			c19-29.7,30.2-65.5,30.2-104.2C312.1,108.9,292.8,63,261.8,29.5z"/>
		<path class="st1" d="M251.2,240c-3.2,0-6.1-2-7.5-5.1c-10.5-23.7-15.8-49-15.8-75.1c0-25.1,5.2-49.6,14.7-72.1h-29
			c-8.8,22.2-13.7,46.5-13.7,72.1c0,38.7,11.2,74.5,30.2,104.2h51.8c4.9-7.6,9.2-15.7,13-24h-4L251.2,240L251.2,240z"/>
		<path class="st2" d="M288.1,296.1h-64.1l6.2-32.1h51.8L288.1,296.1z"/>
		<circle class="st0" cx="256" cy="151.8" r="24"/>
		<path class="st1" d="M213.6,87.7h84.8c-8.7-21.8-21.2-41.6-36.6-58.2c-3.1-3.3-8.5-3.3-11.6,0C234.8,46.1,222.3,65.8,213.6,87.7z"
			/>
		<path class="st1" d="M242.7,87.7c7.3-17.3,16.9-33.1,28.6-46.9c-3.1-3.9-6.2-7.7-9.5-11.3c-3.1-3.3-8.5-3.3-11.6,0
			c-15.4,16.6-27.9,36.3-36.6,58.2H242.7z"/>
		<path class="st3" d="M368.2,384.3c-6.4,0-12.6,1.1-18.3,3.1c-5.4-15.8-20.2-27.2-37.8-27.2c-9.8,0-18.7,3.7-25.6,9.5
			c0.9-3,1.6-6.2,1.6-9.5c0-17.7-14.4-32.1-32.1-32.1s-32.1,14.4-32.1,32.1c0,3.3,0.7,6.5,1.6,9.5c-7-5.9-15.8-9.5-25.6-9.5
			c-17.6,0-32.4,11.4-37.8,27.2c-5.8-2-11.9-3.1-18.3-3.1c-31,0-56.1,25.1-56.1,56.1c0,5.6,0.8,10.9,2.4,16h332
			c1.5-5.1,2.4-10.5,2.4-16C424.3,409.4,399.2,384.3,368.2,384.3z"/>
		<path class="st2" d="M256,127.7c-10.9,0-19.9,7.3-22.9,17.2c2.2-0.7,4.5-1.1,6.9-1.1c13.3,0,24,10.8,24,24c0,2.4-0.5,4.7-1.1,6.9
			c9.9-3,17.2-12.1,17.2-22.9C280,138.5,269.3,127.7,256,127.7z"/>
	</g>
	<g>
		<path d="M504.5,448.9h-32.6V175.8c0-17.4-14.2-31.5-31.5-31.5h-96.2c-4.1,0-7.5,3.4-7.5,7.5s3.4,7.5,7.5,7.5h96.2
			c9.1,0,16.5,7.4,16.5,16.5v273.1h-25.7c0.4-2.8,0.6-5.7,0.6-8.5c0-35.1-28.5-63.6-63.6-63.6c-4.7,0-9.4,0.5-14.1,1.6
			c-8.1-15.6-24.2-25.7-42-25.7c-5.8,0-11.5,1.1-16.8,3.1c-2.2-19.8-19-35.2-39.3-35.2s-37.1,15.4-39.3,35.2
			c-5.3-2.1-11-3.1-16.8-3.1c-17.8,0-34,10.1-42,25.7c-4.6-1.1-9.4-1.6-14.1-1.6c-35.1,0-63.6,28.5-63.6,63.6c0,2.9,0.2,5.7,0.6,8.5
			H55.1V175.8c0-9.1,7.4-16.5,16.5-16.5h96.2c4.1,0,7.5-3.4,7.5-7.5s-3.4-7.5-7.5-7.5H71.6c-17.4,0-31.5,14.2-31.5,31.5v273.1H7.5
			c-4.1,0-7.5,3.4-7.5,7.5v16c0,13,10.6,23.5,23.5,23.5h464.9c13,0,23.5-10.6,23.5-23.5v-16C512,452.3,508.6,448.9,504.5,448.9z
			 M497,472.4c0,4.7-3.8,8.5-8.5,8.5H23.5c-4.7,0-8.5-3.8-8.5-8.5v-8.5h96.7c4.1,0,7.5-3.4,7.5-7.5s-3.4-7.5-7.5-7.5H95.9
			c-0.5-2.8-0.8-5.7-0.8-8.5c0-26.8,21.8-48.6,48.6-48.6c5.3,0,10.7,0.9,15.9,2.7c1.9,0.7,4,0.5,5.7-0.3c1.8-0.9,3.2-2.4,3.8-4.3
			c4.5-13.2,16.8-22.1,30.7-22.1c7.6,0,14.8,2.7,20.8,7.8c2.6,2.1,6.2,2.3,9,0.5s4-5.3,3-8.5c-0.9-2.7-1.3-5.1-1.3-7.3
			c0-13.5,11-24.6,24.6-24.6s24.6,11,24.6,24.6c0,2.2-0.4,4.5-1.3,7.3c-1,3.2,0.2,6.6,3,8.5c2.8,1.8,6.4,1.6,9-0.5
			c6-5.1,13.2-7.8,20.8-7.8c13.8,0,26.2,8.9,30.7,22.1c0.6,1.9,2,3.4,3.8,4.3c1.8,0.9,3.9,1,5.7,0.3c5.2-1.8,10.5-2.7,15.9-2.7
			c26.8,0,48.6,21.8,48.6,48.6c0,2.9-0.3,5.7-0.8,8.5H143.8c-4.1,0-7.5,3.4-7.5,7.5s3.4,7.5,7.5,7.5H497V472.4z"/>
		<path d="M159.6,236.5c-4.7,5.7-7.3,12.8-7.3,20.2V280c0,2.7,1.4,5.1,3.7,6.5c1.2,0.7,2.5,1,3.8,1c1.3,0,2.5-0.3,3.7-1l53.4-30.1
			c2,3.7,4.2,7.4,6.5,11l-6.7,26.9c-0.6,2.2-0.1,4.6,1.4,6.4s3.6,2.9,5.9,2.9h64.1c2.3,0,4.5-1.1,5.9-2.9c1.4-1.8,1.9-4.2,1.4-6.4
			l-6.7-26.9c2.3-3.6,4.4-7.2,6.5-11l53.4,30.1c1.1,0.6,2.4,1,3.7,1c1.3,0,2.6-0.3,3.8-1c2.3-1.3,3.7-3.8,3.7-6.5v-23.4
			c0-7.4-2.6-14.5-7.3-20.2l-35.6-42.7c1.9-11.1,2.8-22.5,2.8-34c0-27.4-5.3-53.8-15.7-78.6c-10.1-23.9-24.4-45.1-42.6-63
			c-2.9-2.9-7.6-2.9-10.5,0c-18.2,17.9-32.5,39.1-42.6,63c-10.4,24.8-15.7,51.2-15.7,78.6c0,11.5,1,22.8,2.8,33.9L159.6,236.5z
			 M167.3,267.2v-10.5c0-3.9,1.4-7.6,3.8-10.6l28.1-33.7c2.8,10.5,6.5,20.8,10.9,30.6L167.3,267.2z M233.5,288.6l4.3-17.1h36.4
			l4.3,17.1H233.5z M340.9,246.1c2.5,3,3.8,6.7,3.8,10.6v10.5L301.8,243c4.5-9.9,8.1-20.1,10.9-30.6L340.9,246.1z M256,34.3
			c12.6,13.5,23,29.1,30.9,45.9h-61.8C233,63.4,243.4,47.8,256,34.3z M218.9,95.2h74.3c7.5,20.4,11.5,42.4,11.5,64.6
			c0,34.5-9.3,67.8-26.9,96.7h-43.5c-17.6-28.9-26.9-62.2-26.9-96.7C207.4,137.5,211.4,115.6,218.9,95.2L218.9,95.2z"/>
		<path d="M287.5,151.8c0-17.4-14.2-31.5-31.5-31.5s-31.5,14.2-31.5,31.5s14.2,31.5,31.5,31.5S287.5,169.2,287.5,151.8z
			 M239.5,151.8c0-9.1,7.4-16.5,16.5-16.5s16.5,7.4,16.5,16.5s-7.4,16.5-16.5,16.5S239.5,160.9,239.5,151.8z"/>
	</g>
</g>
</svg>
