<?xml version="1.0" encoding="utf-8"?>
<!-- Generator: Adobe Illustrator 25.2.0, SVG Export Plug-In . SVG Version: 6.00 Build 0)  -->
<svg version="1.1" id="Capa_1" xmlns="http://www.w3.org/2000/svg" xmlns:xlink="http://www.w3.org/1999/xlink" x="0px" y="0px"
	 viewBox="0 0 512 512" style="enable-background:new 0 0 512 512;" xml:space="preserve">
<style type="text/css">
	.st0{fill:#30475E;}
</style>
<g>
	<g>
		<path class="st0" d="M397.3,216.6L269.7,7.7C266.8,2.9,261.6,0,256,0s-10.8,2.9-13.7,7.6l-127.7,209c-4.2,6.8-2.7,15.6,3.5,20.7
			c6.1,5,15.1,4.8,21-0.5C170.7,207.9,212.2,192,256,192s85.3,15.9,116.9,44.8c5.9,5.3,14.8,5.6,21,0.5
			C400,232.2,401.5,223.4,397.3,216.6z"/>
	</g>
</g>
<g>
	<g>
		<path class="st0" d="M256,224c-79.4,0-144,64.6-144,144s64.6,144,144,144s144-64.6,144-144S335.4,224,256,224z M304,432
			c0,7.4-5.1,13.9-12.3,15.6c-1.2,0.3-2.5,0.4-3.7,0.4c-6,0-11.6-3.3-14.3-8.8L240,371.8V432c0,8.8-7.2,16-16,16s-16-7.2-16-16V304
			c0-7.4,5.1-13.9,12.3-15.6c7.1-1.9,14.7,1.8,18,8.4l33.7,67.4V304c0-8.8,7.2-16,16-16s16,7.2,16,16V432z"/>
	</g>
</g>
</svg>
