<?xml version="1.0" encoding="utf-8"?>
<!-- Generator: Adobe Illustrator 25.2.1, SVG Export Plug-In . SVG Version: 6.00 Build 0)  -->
<svg version="1.1" id="Capa_1" xmlns="http://www.w3.org/2000/svg" xmlns:xlink="http://www.w3.org/1999/xlink" x="0px" y="0px"
	 viewBox="0 0 512 512" style="enable-background:new 0 0 512 512;" xml:space="preserve">
<style type="text/css">
	.st0{fill:#0D7377;}
	.st1{fill:#14FFEC;}
</style>
<g>
	<g>
		<g>
			<path class="st0" d="M280.9,496.2c0,4.6-3.7,8.3-8.3,8.3h-33.1c-4.6,0-8.3-3.7-8.3-8.3V383.7h49.7L280.9,496.2L280.9,496.2z"/>
			<path class="st0" d="M257.9,383.7v112.5c0,4.6-3.7,8.3-8.3,8.3h23c4.6,0,8.3-3.7,8.3-8.3V383.7H257.9z"/>
			<path class="st0" d="M400.6,471.4H111.4l9.5-33.1h270.3L400.6,471.4z"/>
			<path class="st0" d="M140,388.7v-5H90.3v5L60.2,493.9c-1.5,5.3,2.5,10.6,8,10.6h32.5c3.7,0,6.9-2.5,8-6L140,388.7z"/>
			<path class="st0" d="M117,383.7v5L85.6,498.5c-1,3.6-4.3,6-8,6h23c3.7,0,6.9-2.5,8-6L140,388.7v-5H117z"/>
			<path class="st0" d="M372,388.7v-4h49.7v4l30.1,105.2c1.5,5.3-2.5,10.6-8,10.6h-32.5c-3.7,0-6.9-2.5-8-6L372,388.7z"/>
			<path class="st0" d="M451.8,493.9l-30.1-105.2v-4h-23v4l30.1,105.2c1.5,5.3-2.5,10.6-8,10.6h23
				C449.3,504.5,453.3,499.2,451.8,493.9z"/>
			<g>
				<path class="st1" d="M463.1,375.5H48.9c-4.6,0-8.3-3.7-8.3-8.3V35.6h430.7v331.6C471.4,371.8,467.7,375.5,463.1,375.5
					L463.1,375.5z"/>
				<path class="st1" d="M448.4,35.6v331.6c0,4.6-3.7,8.3-8.3,8.3h23c4.6,0,8.3-3.7,8.3-8.3V35.6L448.4,35.6z"/>
			</g>
			<path class="st0" d="M479.9,35.6H32.1c-4.4,0-8-3.6-8-8V10.5c0-4.4,3.6-8,8-8h447.9c4.4,0,8,3.6,8,8v17.1
				C487.9,32.1,484.4,35.6,479.9,35.6z"/>
			<path class="st0" d="M479.9,7.5h-23c4.4,0,8,3.6,8,8v17.1c0,4.4-3.6,8-8,8h23c4.4,0,8-3.6,8-8V15.5
				C487.9,11.1,484.4,7.5,479.9,7.5z"/>
			<path class="st0" d="M479.9,388.5H32.1c-4.4,0-8-3.6-8-8v-17.1c0-4.4,3.6-8,8-8h447.9c4.4,0,8,3.6,8,8v17.1
				C487.9,385,484.4,388.5,479.9,388.5z"/>
			<path class="st0" d="M479.9,355.4h-23c4.4,0,8,3.6,8,8v17.1c0,4.4-3.6,8-8,8h23c4.4,0,8-3.6,8-8v-17.1
				C487.9,359,484.4,355.4,479.9,355.4z"/>
		</g>
	</g>
	<g>
		<path d="M479.9,48.1c8.5,0,15.5-7,15.5-15.5V15.5c0-8.5-7-15.5-15.5-15.5H32.1c-8.5,0-15.5,7-15.5,15.5v17.1
			c0,8.5,7,15.5,15.5,15.5h1.1v43.8c0,4.1,3.4,7.5,7.5,7.5s7.5-3.4,7.5-7.5V48.1h415.7v299.8H48.1v-226c0-4.1-3.4-7.5-7.5-7.5
			s-7.5,3.4-7.5,7.5v226h-1.1c-8.5,0-15.5,7-15.5,15.5v17.1c0,8.5,7,15.5,15.5,15.5h48.4L53,491.9c-1.4,4.8-0.4,9.9,2.6,13.8
			c3,4,7.6,6.3,12.6,6.3h32.5c7,0,13.2-4.7,15.2-11.4l6.2-21.7h101.6v17.4c0,8.7,7.1,15.8,15.8,15.8h33.1c8.7,0,15.8-7.1,15.8-15.8
			v-17.4H390l6.2,21.7c1.9,6.7,8.2,11.4,15.2,11.4h32.5c5,0,9.6-2.3,12.6-6.3c3-4,3.9-9,2.6-13.8L431.6,396h48.4
			c8.5,0,15.5-7,15.5-15.5v-17.1c0-8.5-7-15.5-15.5-15.5h-1.1V48.1L479.9,48.1z M100.7,497H68.2c-0.1,0-0.4,0-0.6-0.3
			c-0.2-0.3-0.2-0.6-0.1-0.7L96,396.2h34.1l-28.7,100.2C101.3,496.8,101,497,100.7,497L100.7,497z M273.3,496.2
			c0,0.4-0.4,0.8-0.8,0.8h-33.1c-0.4,0-0.8-0.4-0.8-0.8v-17.4h34.7V496.2z M126.3,463.9l5.2-18.1h249l5.2,18.1H126.3z M273.3,396.2
			v34.5h-34.7v-34.5H273.3z M444.4,496.7c-0.2,0.3-0.5,0.3-0.6,0.3h-32.5c-0.3,0-0.7-0.2-0.8-0.6l-28.7-100.2H416l28.6,99.8
			C444.6,496.1,444.7,496.4,444.4,496.7L444.4,496.7z M376.2,430.7h-87.8V396h77.9L376.2,430.7z M480.4,363.4v17.1
			c0,0.3-0.2,0.5-0.5,0.5H190.3c-4.1,0-7.5,3.4-7.5,7.5s3.4,7.5,7.5,7.5h33.4v34.7h-87.8l9.9-34.7h14.6c4.1,0,7.5-3.4,7.5-7.5
			s-3.4-7.5-7.5-7.5H32.1c-0.3,0-0.5-0.2-0.5-0.5v-17.1c0-0.3,0.2-0.5,0.5-0.5h447.9C480.2,362.9,480.4,363.1,480.4,363.4
			L480.4,363.4z M32.1,33.1c-0.3,0-0.5-0.2-0.5-0.5V15.5c0-0.3,0.2-0.5,0.5-0.5h447.9c0.3,0,0.5,0.2,0.5,0.5v17.1
			c0,0.3-0.2,0.5-0.5,0.5H32.1z"/>
		<path d="M116,305.7c0,13.3,10.8,24.1,24.1,24.1s24.1-10.8,24.1-24.1c0-13.3-10.8-24.1-24.1-24.1S116,292.4,116,305.7z M140,296.6
			c5,0,9.1,4.1,9.1,9.1c0,5-4.1,9.1-9.1,9.1s-9.1-4.1-9.1-9.1S135,296.6,140,296.6z"/>
		<path d="M372,115c13.3,0,24.1-10.8,24.1-24.1c0-13.3-10.8-24.1-24.1-24.1s-24.1,10.8-24.1,24.1S358.7,115,372,115z M372,81.9
			c5,0,9.1,4.1,9.1,9.1c0,5-4.1,9.1-9.1,9.1s-9.1-4.1-9.1-9.1C362.9,85.9,367,81.9,372,81.9z"/>
		<path d="M132.5,256c0,4.1,3.4,7.5,7.5,7.5s7.5-3.4,7.5-7.5v-16.6c0-4.1-3.4-7.5-7.5-7.5s-7.5,3.4-7.5,7.5V256z"/>
		<path d="M140,213.8c4.1,0,7.5-3.4,7.5-7.5v-16.6c0-4.1-3.4-7.5-7.5-7.5s-7.5,3.4-7.5,7.5v16.6C132.5,210.4,135.9,213.8,140,213.8z
			"/>
		<path d="M118.2,161.9c1.5,1.5,3.4,2.2,5.3,2.2s3.8-0.7,5.3-2.2l11.3-11.3l11.3,11.3c1.5,1.5,3.4,2.2,5.3,2.2
			c1.9,0,3.8-0.7,5.3-2.2c2.9-2.9,2.9-7.7,0-10.6L150.6,140l11.3-11.3c2.9-2.9,2.9-7.7,0-10.6c-2.9-2.9-7.7-2.9-10.6,0L140,129.4
			l-11.3-11.3c-2.9-2.9-7.7-2.9-10.6,0c-2.9,2.9-2.9,7.7,0,10.6l11.3,11.3l-11.3,11.3C115.2,154.2,115.2,159,118.2,161.9z"/>
		<path d="M261.3,225.8c-2.9-2.9-7.7-2.9-10.6,0l-11.3,11.3l-11.3-11.3c-2.9-2.9-7.7-2.9-10.6,0c-2.9,2.9-2.9,7.7,0,10.6l11.3,11.3
			L217.6,259c-2.9,2.9-2.9,7.7,0,10.6c1.5,1.5,3.4,2.2,5.3,2.2s3.8-0.7,5.3-2.2l11.3-11.3l11.3,11.3c1.5,1.5,3.4,2.2,5.3,2.2
			c1.9,0,3.8-0.7,5.3-2.2c2.9-2.9,2.9-7.7,0-10.6L250,247.7l11.3-11.3C264.2,233.5,264.2,228.8,261.3,225.8L261.3,225.8z"/>
		<path d="M393.8,225.8c-2.9-2.9-7.7-2.9-10.6,0L372,237.1l-11.3-11.3c-2.9-2.9-7.7-2.9-10.6,0c-2.9,2.9-2.9,7.7,0,10.6l11.3,11.3
			L350.1,259c-2.9,2.9-2.9,7.7,0,10.6c1.5,1.5,3.4,2.2,5.3,2.2s3.8-0.7,5.3-2.2l11.3-11.3l11.3,11.3c1.5,1.5,3.4,2.2,5.3,2.2
			c1.9,0,3.8-0.7,5.3-2.2c2.9-2.9,2.9-7.7,0-10.6l-11.3-11.3l11.3-11.3C396.8,233.5,396.8,228.8,393.8,225.8L393.8,225.8z"/>
		<path d="M173.2,182.2c-4.1,0-7.5,3.4-7.5,7.5s3.4,7.5,7.5,7.5H372c4.1,0,7.5-3.4,7.5-7.5v-32l3.8,3.8c1.5,1.5,3.4,2.2,5.3,2.2
			s3.8-0.7,5.3-2.2c2.9-2.9,2.9-7.7,0-10.6l-16.6-16.6c-2.9-2.9-7.7-2.9-10.6,0l-16.6,16.6c-2.9,2.9-2.9,7.7,0,10.6
			c2.9,2.9,7.7,2.9,10.6,0l3.8-3.8v24.5L173.2,182.2L173.2,182.2z"/>
	</g>
</g>
</svg>
