<?xml version="1.0" encoding="utf-8"?>
<!-- Generator: Adobe Illustrator 25.2.1, SVG Export Plug-In . SVG Version: 6.00 Build 0)  -->
<svg version="1.1" id="Layer_1" xmlns="http://www.w3.org/2000/svg" xmlns:xlink="http://www.w3.org/1999/xlink" x="0px" y="0px"
	 viewBox="0 0 512 512" style="enable-background:new 0 0 512 512;" xml:space="preserve">
<style type="text/css">
	.st0{fill:#14FFEC;}
</style>
<g>
	<path class="st0" d="M66,16h108c27.6,0,50,22.4,50,50v108c0,27.6-22.4,50-50,50H66c-27.6,0-50-22.4-50-50V66C16,38.4,38.4,16,66,16
		z"/>
	<path class="st0" d="M338,16h108c27.6,0,50,22.4,50,50v108c0,27.6-22.4,50-50,50H338c-27.6,0-50-22.4-50-50V66
		C288,38.4,310.4,16,338,16z"/>
	<path class="st0" d="M392,288c57.4,0,104,46.6,104,104s-46.6,104-104,104s-104-46.6-104-104S334.6,288,392,288z"/>
	<path class="st0" d="M66,288h108c27.6,0,50,22.4,50,50v108c0,27.6-22.4,50-50,50H66c-27.6,0-50-22.4-50-50V338
		C16,310.4,38.4,288,66,288z"/>
	<path class="st0" d="M224,66v108c0,27.6-22.4,50-50,50h-40c27.6,0,50-22.4,50-50V66c0-27.6-22.4-50-50-50h40
		C201.6,16,224,38.4,224,66z"/>
	<path class="st0" d="M496,66v108c0,27.6-22.4,50-50,50h-40c27.6,0,50-22.4,50-50V66c0-27.6-22.4-50-50-50h40
		C473.6,16,496,38.4,496,66z"/>
	<path class="st0" d="M496,392c0,28.7-11.6,54.7-30.5,73.5S420.7,496,392,496c-6.8,0-13.5-0.7-20-1.9c20.7-4,39.2-14.2,53.5-28.5
		c18.8-18.8,30.5-44.8,30.5-73.5c0-50.6-36.1-92.8-84-102.1c6.5-1.3,13.2-1.9,20-1.9C449.4,288,496,334.6,496,392z"/>
	<path class="st0" d="M224,338v108c0,27.6-22.4,50-50,50h-40c27.6,0,50-22.4,50-50V338c0-27.6-22.4-50-50-50h40
		C201.6,288,224,310.4,224,338z"/>
	<g>
		<path d="M174,240H66c-36.4,0-66-29.6-66-66V66C0,29.6,29.6,0,66,0h108c36.4,0,66,29.6,66,66v108C240,210.4,210.4,240,174,240z
			 M66,32c-18.7,0-34,15.3-34,34v108c0,18.7,15.3,34,34,34h108c18.7,0,34-15.3,34-34V66c0-18.7-15.3-34-34-34H66z"/>
	</g>
	<g>
		<path d="M446,240H338c-36.4,0-66-29.6-66-66V66c0-36.4,29.6-66,66-66h108c36.4,0,66,29.6,66,66v108C512,210.4,482.4,240,446,240z
			 M338,32c-18.7,0-34,15.3-34,34v108c0,18.7,15.3,34,34,34h108c18.7,0,34-15.3,34-34V66c0-18.7-15.3-34-34-34H338z"/>
	</g>
	<g>
		<path d="M392,512c-66.2,0-120-53.8-120-120s53.8-120,120-120s120,53.8,120,120S458.2,512,392,512z M392,304c-48.5,0-88,39.5-88,88
			s39.5,88,88,88s88-39.5,88-88S440.5,304,392,304z"/>
	</g>
	<g>
		<path d="M174,512H66c-36.4,0-66-29.6-66-66V338c0-36.4,29.6-66,66-66h108c36.4,0,66,29.6,66,66v108C240,482.4,210.4,512,174,512z
			 M66,304c-18.7,0-34,15.3-34,34v108c0,18.7,15.3,34,34,34h108c18.7,0,34-15.3,34-34V338c0-18.7-15.3-34-34-34H66z"/>
	</g>
</g>
</svg>
