<?xml version="1.0" encoding="utf-8"?>
<!-- Generator: Adobe Illustrator 25.2.0, SVG Export Plug-In . SVG Version: 6.00 Build 0)  -->
<svg version="1.1" id="Layer_1" xmlns="http://www.w3.org/2000/svg" xmlns:xlink="http://www.w3.org/1999/xlink" x="0px" y="0px"
	 viewBox="0 0 297 297" style="enable-background:new 0 0 297 297;" xml:space="preserve">
<style type="text/css">
	.st0{fill:#0D7377;}
</style>
<g>
	<g>
		<g>
			<path class="st0" d="M107.9,0H22.6C10.1,0,0,10.1,0,22.6v85.3c0,12.5,10.1,22.6,22.6,22.6h85.3c12.5,0,22.6-10.1,22.6-22.6V22.6
				C130.5,10.1,120.4,0,107.9,0z"/>
			<path class="st0" d="M274.4,0h-85.3c-12.5,0-22.6,10.1-22.6,22.6v85.3c0,12.5,10.1,22.6,22.6,22.6h85.3
				c12.5,0,22.6-10.1,22.6-22.6V22.6C297,10.1,286.9,0,274.4,0z"/>
			<path class="st0" d="M107.9,166.5H22.6C10.1,166.5,0,176.6,0,189.1v85.3C0,286.9,10.1,297,22.6,297h85.3
				c12.5,0,22.6-10.1,22.6-22.6v-85.3C130.5,176.6,120.4,166.5,107.9,166.5z"/>
			<path class="st0" d="M274.4,166.5h-85.3c-12.5,0-22.6,10.1-22.6,22.6v85.3c0,12.5,10.1,22.6,22.6,22.6h85.3
				c12.5,0,22.6-10.1,22.6-22.6v-85.3C297,176.6,286.9,166.5,274.4,166.5z"/>
		</g>
	</g>
</g>
</svg>
