<?xml version="1.0" encoding="utf-8"?>
<!-- Generator: Adobe Illustrator 25.2.0, SVG Export Plug-In . SVG Version: 6.00 Build 0)  -->
<svg version="1.1" id="Capa_1" xmlns="http://www.w3.org/2000/svg" xmlns:xlink="http://www.w3.org/1999/xlink" x="0px" y="0px"
	 viewBox="0 0 512 512" style="enable-background:new 0 0 512 512;" xml:space="preserve">
<style type="text/css">
	.st0{fill:#FFFFFF;}
	.st1{fill:#0D7377;}
	.st2{fill:#14FFEC;}
</style>
<g>
	<g>
		<g>
			<circle class="st0" cx="256" cy="197.6" r="80.6"/>
			<path class="st0" d="M395.4,106.5l-20.6,20.6c6.7,11.2,11.8,23.4,15.1,36.4H419c13.6,0,24.6,11,24.6,24.6v19
				c0,13.6-11,24.6-24.6,24.6h-29.2c-3.3,13-8.4,25.2-15.1,36.4l20.6,20.6c6.9,6.9,8.9,17,5.8,25.6h99.7V113.8
				c0-18.9-15.3-34.2-34.2-34.2h-66C404.4,88.6,402.6,99.2,395.4,106.5L395.4,106.5z"/>
			<path class="st0" d="M116.6,288.8l20.6-20.6c-6.7-11.2-11.8-23.4-15.1-36.4H93c-13.6,0-24.6-11-24.6-24.6v-19
				c0-13.6,11-24.6,24.6-24.6h29.2c3.3-13,8.4-25.2,15.1-36.4l-20.6-20.6c-7.3-7.3-9-17.9-5.3-26.8h-66c-18.9,0-34.2,15.3-34.2,34.2
				v200.6h99.7C107.7,305.7,109.7,295.7,116.6,288.8L116.6,288.8z"/>
		</g>
		<path class="st1" d="M213,449.5H299l-18.7-67.1h-48.6L213,449.5z"/>
		<path class="st1" d="M175.4,449.5c-12.6,0-22.8,10.2-22.8,22.8V502h206.8v-29.7c0-12.6-10.2-22.8-22.8-22.8H299H213H175.4z"/>
		<path class="st2" d="M116.6,106.5l20.6,20.6c-6.7,11.2-11.8,23.4-15.1,36.4H93c-13.6,0-24.6,11-24.6,24.6v19
			c0,13.6,11,24.6,24.6,24.6h29.2c3.3,13,8.4,25.2,15.1,36.4l-20.6,20.6c-6.9,6.9-8.9,17-5.8,25.6h290.4c3.1-8.7,1.1-18.7-5.8-25.6
			l-20.6-20.6c6.7-11.2,11.8-23.4,15.1-36.4H419c13.6,0,24.6-11,24.6-24.6v-19c0-13.6-11-24.6-24.6-24.6h-29.2
			c-3.3-13-8.4-25.2-15.1-36.4l20.6-20.6c7.3-7.3,9-17.9,5.3-26.8c-3-7.2-7.4-9.4-18.8-21.4c-9.6-9.6-25.2-9.6-34.8,0l-20.6,20.6
			c-11.2-6.7-23.4-11.8-36.4-15.1V34.6c0-13.6-11-24.6-24.6-24.6h-19c-13.6,0-24.6,11-24.6,24.6v29.2c-13,3.3-25.2,8.4-36.4,15.1
			l-20.6-20.6c-9.6-9.6-25.2-9.6-34.8,0c-11.4,12-15.8,14.2-18.8,21.4C107.6,88.6,109.4,99.2,116.6,106.5L116.6,106.5z M256,278.3
			c-44.5,0-80.6-36.1-80.6-80.6c0-44.5,36.1-80.6,80.6-80.6s80.6,36.1,80.6,80.6C336.6,242.2,300.5,278.3,256,278.3z"/>
		<path class="st1" d="M500.9,314.4h-99.7H110.8H11.1v33.8c0,18.9,15.3,34.2,34.2,34.2h186.4h235c18.9,0,34.2-15.3,34.2-34.2V314.4z
			"/>
	</g>
	<g>
		<path d="M288.9,134c7.2,0,11.9-7.3,9.2-13.8c-1.8-4.4-6.5-6.9-11.2-6c-4.8,1-8.1,5.2-8.1,9.8C278.9,129.3,283.2,134,288.9,134z"/>
		<path d="M256,288.3c50,0,90.6-40.7,90.6-90.6c0-20.4-7-40.5-19.7-56.4c-3.4-4.3-9.7-5-14.1-1.6c-4.3,3.4-5,9.7-1.6,14.1
			c10,12.6,15.3,27.8,15.3,44c0,38.9-31.7,70.6-70.6,70.6s-70.6-31.7-70.6-70.6c0-37.5,29.3-68.5,66.8-70.5c2.1-0.1,4-0.8,5.5-2
			c7.8-5.9,3.3-18.5-6.6-18c-48.1,2.6-85.7,42.3-85.7,90.5C165.4,247.6,206,288.3,256,288.3z"/>
		<path d="M466.7,69.7h-60.1c-3.1-4.5-5-5.6-17.6-18.5c-13.5-13.5-35.5-13.5-49,0l-15.3,15.3c-7.9-4.2-16.2-7.6-24.7-10.2V34.6
			c0-19.1-15.5-34.6-34.6-34.6h-19c-19.1,0-34.6,15.5-34.6,34.6v21.6c-8.5,2.7-16.8,6.1-24.7,10.2l-15.3-15.3
			c-13.5-13.5-35.5-13.5-49,0c-12.4,12.6-14.5,14-17.6,18.5H45.3c-24.4,0-44.2,19.8-44.2,44.2v234.4c0,24.3,19.7,44.2,44.2,44.2
			h173.3l-13.1,47.1h-30.1c-18.1,0-32.8,14.7-32.8,32.8V492h-36.7c-5.5,0-10,4.5-10,10s4.5,10,10,10h300.2c5.5,0,10-4.5,10-10
			s-4.5-10-10-10h-36.7v-19.7c0-18.1-14.7-32.8-32.8-32.8h-30.1l-13.1-47.1h173.3c24.4,0,44.2-19.8,44.2-44.2
			c0-12.4,0-226.2,0-234.4C510.9,89.5,491.1,69.6,466.7,69.7L466.7,69.7z M466.7,89.7c13.3,0,24.2,10.8,24.2,24.2v190.6h-78.4
			c-0.4-8.4-3.9-16.6-10-22.7l-15.3-15.3c4.2-7.9,7.6-16.2,10.2-24.7c21.9-0.1,22.1,0.1,25.1-0.2c17.4-1.8,31.1-16.5,31.1-34.4v-19
			c0-19.1-15.5-34.6-34.6-34.6h-21.6c-2.7-8.5-6.1-16.8-10.2-24.7l15.3-15.3c6.6-6.6,10-15.3,10.2-23.9L466.7,89.7z M123.7,78.7
			l13.4-13.4c5.7-5.7,15-5.7,20.7,0L178.4,86c3.2,3.2,8.3,3.9,12.2,1.5c10.5-6.3,21.9-11,33.7-14c4.4-1.1,7.5-5.1,7.5-9.7V34.6
			c0-8.1,6.6-14.6,14.6-14.6h19c8.1,0,14.6,6.6,14.6,14.6v29.2c0,4.6,3.1,8.6,7.5,9.7c11.8,3,23.2,7.7,33.7,14
			c3.9,2.3,8.9,1.7,12.2-1.5l20.6-20.6c5.7-5.7,15-5.7,20.7,0c13.5,13.9,16.2,14.6,17.5,21.1c0.9,4.8-0.7,9.6-4,13l-20.6,20.6
			c-3.2,3.2-3.9,8.3-1.5,12.2c5.5,9.2,9.8,19.1,12.8,29.3c0.4,1.5,0.8,2.9,1.2,4.4c1.1,4.4,5.1,7.5,9.7,7.5H419
			c8.1,0,14.6,6.6,14.6,14.6v19c0,8.1-6.6,14.6-14.6,14.6h-29.2c-4.6,0-8.6,3.1-9.7,7.5c-3,11.8-7.7,23.2-14,33.7
			c-0.1,0.2-0.3,0.5-0.4,0.7c-1.8,3.8-1.1,8.4,1.9,11.4c18.3,19.5,23.8,20.9,24.8,29.2h-273c0.4-3.2,1.8-6.2,4.2-8.6l20.6-20.6
			c3.2-3.2,3.9-8.3,1.5-12.2c-6.3-10.6-11-21.9-14-33.7c-1.1-4.4-5.1-7.5-9.7-7.5H93c-8.1,0-14.6-6.6-14.6-14.6v-19
			c0-8.1,6.6-14.6,14.6-14.6h29.2c4.6,0,8.6-3.1,9.7-7.5c3-11.8,7.7-23.2,14-33.7c2.3-3.9,1.7-8.9-1.5-12.2
			c-20.2-20.5-20.9-20.5-22.6-23C118,91.3,118.8,83.6,123.7,78.7L123.7,78.7z M45.3,89.7h54.1c0.1,8.7,3.6,17.4,10.2,23.9l15.3,15.3
			c-4.2,7.9-7.6,16.2-10.2,24.7H93c-19.1,0-34.6,15.5-34.6,34.6v19c0,19.1,15.6,34.6,34.6,34.6h21.6c2.7,8.5,6.1,16.8,10.2,24.7
			l-15.3,15.3c-6.1,6.1-9.6,14.3-10,22.7H21.1V113.8C21.1,100.5,31.9,89.6,45.3,89.7L45.3,89.7z M349.4,472.3V492H162.6v-19.7
			c0-7,5.7-12.8,12.8-12.8h161.2C343.7,459.5,349.4,465.2,349.4,472.3z M285.8,439.5h-59.6l13.1-47.1h33.4L285.8,439.5z
			 M490.9,348.3c0,13.3-10.8,24.2-24.2,24.2c-14.9,0-407.5,0-421.5,0c-13.4,0-24.2-10.9-24.2-24.2v-23.8h469.8L490.9,348.3
			L490.9,348.3z"/>
	</g>
</g>
</svg>
